<?xml version="1.0" encoding="UTF-8"?>
<svg width="120px" height="40px" viewBox="0 0 120 40" version="1.1" xmlns="http://www.w3.org/2000/svg" xmlns:xlink="http://www.w3.org/1999/xlink">
    <!-- Generator: Sketch 48.2 (47327) - http://www.bohemiancoding.com/sketch -->
    <title>logo/customer/realm</title>
    <desc>Created with Sketch.</desc>
    <defs>
        <polygon id="path-1" points="0.000132967033 0 39.9886385 0 39.9886385 39.9996 0.000132967033 39.9996"></polygon>
        <polygon id="path-3" points="1.22555714 0.334133333 73.3964725 0.334133333 73.3964725 23.0568 1.22555714 23.0568"></polygon>
    </defs>
    <g id="Homepage-desktop" stroke="none" stroke-width="1" fill="none" fill-rule="evenodd" transform="translate(-941.000000, -682.000000)">
        <g id="logo/customer/realm" transform="translate(941.000000, 682.000000)">
            <g id="Page-1">
                <g id="Group-3">
                    <mask id="mask-2" fill="white">
                        <use xlink:href="#path-1"></use>
                    </mask>
                    <g id="Clip-2"></g>
                    <path d="M19.993056,2.1276 C17.6993747,2.1276 15.3365505,2.6036 13.1612099,3.50493333 C10.9858692,4.40626667 8.97806703,5.74093333 7.35852857,7.36493333 C5.73633077,8.98893333 4.40267143,10.9982667 3.50115495,13.1716 C2.59830879,15.3476 2.12228681,17.7089333 2.12228681,19.9996 C2.12228681,22.2929333 2.59697912,24.6556 3.4984956,26.8302667 C4.40001209,29.0076 5.73367143,31.0142667 7.3571989,32.6342667 C8.98205604,34.2569333 10.9898582,35.5916 13.1651989,36.4929333 C15.3405396,37.3956 17.7033637,37.8729333 19.9943857,37.8729333 C22.2893967,37.8729333 24.6508912,37.3969333 26.8262319,36.4942667 C29.0029022,35.5929333 31.0093747,34.2582667 32.6289132,32.6342667 C34.2870121,30.9636 35.5861,29.0116 36.4876165,26.8316 C37.3904626,24.6542667 37.8545176,22.3542667 37.8664846,19.9956 C37.8664846,17.7036 37.3904626,15.3436 36.4902758,13.1702667 C35.5887593,10.9929333 34.2537703,8.98626667 32.6302429,7.36626667 C31.0093747,5.74093333 29.0029022,4.40626667 26.8262319,3.50493333 C24.6508912,2.6036 22.288067,2.1276 19.9943857,2.1276 L19.993056,2.1276 Z M19.9943857,39.9996 C17.4267923,39.9996 14.7847374,39.4662667 12.3541,38.4582667 C9.92612198,37.4516 7.68030879,35.9582667 5.85999011,34.1409333 C4.0410011,32.3262667 2.54645165,30.0796 1.53856154,27.6462667 C0.532001099,25.2142667 0.000132967033,22.5702667 0.000132967033,19.9996 C0.000132967033,17.4316 0.533330769,14.7876 1.54255055,12.3556 C2.54911099,9.92626667 4.04233077,7.68093333 5.85866044,5.8596 C7.67499011,4.04093333 9.91947363,2.54626667 12.3514407,1.5396 C14.782078,0.5316 17.424133,-0.0004 19.993056,-0.0004 L19.9943857,-0.0004 C22.5646385,-0.0004 25.2053637,0.5316 27.6360011,1.5396 C30.0679681,2.54626667 32.3137813,4.04093333 34.1287813,5.8596 C35.9477703,7.67426667 37.4409901,9.9196 38.4488802,12.3542667 C39.4567703,14.7849333 39.9886385,17.4289333 39.9886385,19.9996 L39.9886385,20.0049333 C39.9753418,22.6422667 39.4567703,25.2129333 38.4475505,27.6489333 C37.4383308,30.0836 35.9863308,32.2662667 34.1314407,34.1369333 C32.3137813,35.9582667 30.0692978,37.4529333 27.6373308,38.4609333 C25.2066934,39.4676 22.5646385,39.9996 19.9943857,39.9996 Z" id="Fill-1" fill="#FFFFFF" mask="url(#mask-2)"></path>
                </g>
                <path d="M10.9418571,8.0124 C9.46459341,8.0124 7.98998901,7.78706667 6.58053846,7.34173333 L7.21745055,5.3124 C9.11887912,5.91373333 11.1612527,6.0444 13.1238462,5.69106667 C14.875022,5.3724 16.5304615,4.67906667 18.282967,3.94706667 C19.8267143,3.30173333 21.4236484,2.63373333 23.1123297,2.2324 C24.7784066,1.8364 26.487033,1.7084 28.193,1.85373333 L28.0134945,3.97373333 C26.5335714,3.84706667 25.0483297,3.95773333 23.6016484,4.30173333 C22.0805055,4.6644 20.6324945,5.26973333 19.1007143,5.90973333 C17.3202857,6.65373333 15.480022,7.4244 13.5014725,7.7844 C12.6571319,7.9364 11.7994945,8.0124 10.9418571,8.0124 Z M3.29492308,13.0870667 L2.27240659,11.2230667 C5.52610989,9.4284 9.15478022,8.50173333 12.7621758,8.5404 C14.8936374,8.56173333 17.0011648,8.90973333 19.0382198,9.24573333 C21.299989,9.61773333 23.4367692,9.96973333 25.6067912,9.91773333 C28.6623736,9.82706667 31.6461538,8.92306667 34.239011,7.3004 L35.3612527,9.1044 C32.4492747,10.9270667 29.0971758,11.9430667 25.6666264,12.0430667 L25.6613077,12.0430667 C23.2905055,12.1017333 20.9542747,11.7164 18.6951648,11.3444 C16.6461429,11.0070667 14.7101429,10.6870667 12.7395714,10.6670667 C9.49384615,10.6324 6.22950549,11.4684 3.29492308,13.0870667 Z M14.7234396,18.1550667 L14.0160549,16.1497333 C14.9468242,15.8190667 15.8616374,15.4404 16.6341758,15.1124 C16.9107473,14.9950667 17.1873187,14.8764 17.4652198,14.7577333 C19.4131868,13.9230667 21.428967,13.0590667 23.5684066,12.5644 C27.2609011,11.7217333 31.0743956,12.0057333 34.5993516,13.3857333 C36.3026593,14.0617333 37.8929451,14.9804 39.3263297,16.1177333 L38.009956,17.7857333 C36.7387912,16.7777333 35.3293407,15.9630667 33.8228242,15.3657333 C30.6994286,14.1430667 27.3154176,13.8910667 24.0417692,14.6377333 C22.0884835,15.0897333 20.2482198,15.8777333 18.2989231,16.7137333 C18.0196923,16.8337333 17.7404615,16.9537333 17.4612308,17.0710667 C16.6594396,17.4110667 15.7073956,17.8070667 14.7234396,18.1550667 Z M4.50891209,18.6777333 C3.2443956,18.2950667 2.03306593,17.7497333 0.909494505,17.0564 L2.02242857,15.2444 C2.9890989,15.8417333 4.03156044,16.3110667 5.12056044,16.6404 L4.50891209,18.6777333 Z" id="Fill-4" fill="#FFFFFF"></path>
                <path d="M25.0650835,22.4212 C23.3697538,21.8718667 21.7262813,21.1518667 20.1359956,20.4545333 C19.7636879,20.2918667 19.3794132,20.1225333 19.0017868,19.9598667 C16.8131495,19.0185333 14.2601824,17.9932 11.6473802,17.7318667 C9.13297363,17.4878667 6.59596264,17.9398667 4.31690769,19.0385333 C3.39544615,19.4852 2.52318242,20.0385333 1.72670989,20.6825333 L0.39570989,19.0265333 C1.3185011,18.2812 2.32772088,17.6398667 3.39544615,17.1225333 C6.02686374,15.8545333 8.95080879,15.3332 11.8548088,15.6158667 C14.7694462,15.9052 17.504578,17.0012 19.8381495,18.0052 C20.2224242,18.1705333 20.6106879,18.3412 20.9856549,18.5052 C22.5280725,19.1812 24.1223473,19.8798667 25.7179516,20.3972 L25.0650835,22.4212 Z" id="Fill-6" fill="#FFFFFF"></path>
                <path d="M17.7032308,26.6113333 L16.8854835,24.6486667 C18.4770989,23.982 20.0421209,23.106 21.5552857,22.258 C23.7944505,21.0033333 26.1107363,19.706 28.673011,18.9753333 C32.0836154,18.0006667 35.8492418,18.134 39.2758022,19.3513333 L38.5670879,21.3566667 C35.5527253,20.2846667 32.2458352,20.1673333 29.2527473,21.022 C26.9284835,21.6846667 24.820956,22.8646667 22.5897692,24.1153333 C21.0247473,24.9926667 19.4065385,25.8993333 17.7032308,26.6113333" id="Fill-8" fill="#FFFFFF"></path>
                <path d="M12.6746835,35.0182667 C12.3941231,35.0182667 12.112233,35.0116 11.8303429,34.9996 C9.68292527,34.9076 7.57672747,34.4676 5.57158462,33.6929333 L6.33481538,31.7076 C8.12455165,32.3996 10.0033758,32.7929333 11.9207604,32.8742667 C13.8368154,32.9569333 15.742233,32.7262667 17.5838264,32.1889333 C18.7964857,31.8329333 19.9586176,31.3516 21.1898923,30.8409333 C21.9916835,30.5089333 22.8200681,30.1649333 23.6617495,29.8609333 C24.3106286,29.6276 24.9701451,29.4182667 25.6376396,29.2316 C24.954189,29.1569333 24.2747275,29.0462667 23.5992549,28.8982667 C21.6366615,28.4662667 19.7658154,27.7342667 17.9561341,27.0276 C15.7435626,26.1622667 13.6546505,25.3462667 11.4380901,25.0422667 C8.41840879,24.6302667 5.25778242,25.2596 2.53993626,26.8142667 L1.4894967,24.9649333 C4.61156264,23.1809333 8.24555165,22.4609333 11.7239692,22.9342667 C14.1905077,23.2716 16.4974857,24.1729333 18.7260132,25.0449333 C20.5396835,25.7542667 22.2522989,26.4236 24.0526725,26.8196 C27.2624967,27.5196 30.5959802,27.3036 33.6914527,26.1929333 C35.0782989,25.6902667 36.3999912,25.0102667 37.6192989,24.1716 L38.8186615,25.9276 C37.4584088,26.8622667 35.9824747,27.6222667 34.4320791,28.1862667 C35.1328154,28.2116 35.832222,28.2596 36.5289692,28.3342667 L36.3029253,30.4502667 C32.2740242,30.0182667 28.1507165,30.5062667 24.3797714,31.8636 C23.5859582,32.1502667 22.780178,32.4849333 21.9996615,32.8076 C20.7710462,33.3156 19.501211,33.8422667 18.1795187,34.2316 C16.3844637,34.7542667 14.536222,35.0182667 12.6746835,35.0182667" id="Fill-10" fill="#FFFFFF"></path>
                <g id="Group-14" transform="translate(46.538462, 6.666667)">
                    <mask id="mask-4" fill="white">
                        <use xlink:href="#path-3"></use>
                    </mask>
                    <g id="Clip-13"></g>
                    <path d="M38.4656341,22.5794667 L37.477689,20.6501333 C37.005656,21.3488 35.4672275,23.0568 32.6350297,23.0568 C29.499667,23.0568 27.1275352,20.8221333 27.1275352,18.2101333 C27.1275352,15.5554667 28.9638099,12.0528 36.4139527,12.0528 C36.4139527,10.2928 34.8954692,9.63546667 33.2918868,9.63546667 C32.0672604,9.63546667 30.3200736,10.1568 28.8308429,11.5701333 L27.4120846,7.5568 C28.3920516,6.94613333 30.6524912,5.37946667 34.0152275,5.37946667 C39.0294143,5.37946667 41.0771066,8.42213333 41.0771066,13.3288 L41.0771066,22.5808 L38.4656341,22.5808 L38.4656341,22.5794667 Z M31.7441505,17.6088 C31.7441505,18.7288 33.5471835,19.8021333 35.0563593,18.9901333 C36.5256451,18.1994667 36.4033154,16.9608 36.4033154,15.2141333 C33.617656,15.2141333 31.7441505,16.2248 31.7441505,17.6088 Z M20.5004582,18.9088 C22.5375132,18.9088 24.1131725,17.9474667 24.1131725,17.9474667 L25.4308758,21.6274667 C24.7673703,21.9914667 22.5734143,22.9141333 19.9646011,22.9141333 C13.9624692,22.9141333 11.5504473,18.9181333 11.5504473,14.1368 C11.5504473,9.62213333 14.2523374,5.51546667 19.0630846,5.51546667 C23.7874033,5.51546667 27.0078648,9.45946667 26.1661835,15.7901333 L16.1258429,15.7901333 C16.3439088,18.0421333 18.2905462,18.9088 20.4991286,18.9088 L20.5004582,18.9088 Z M16.1909967,12.2408 L21.6812055,12.2408 C21.5522275,10.0221333 20.2425022,9.2368 18.968678,9.2368 C17.6975132,9.2368 16.3465681,10.2741333 16.1909967,12.2408 Z M51.1334033,22.5741333 L55.7978868,22.5741333 L55.7978868,13.3968 C55.7978868,11.8808 56.6900956,10.0808 58.2325132,10.0808 C59.7775901,10.0808 59.9078978,12.2301333 59.9078978,13.2528 C59.9172055,13.2834667 59.9145462,22.5728 59.9145462,22.5728 L64.581689,22.5728 L64.581689,13.4661333 C64.581689,11.3914667 65.7331835,10.1008 66.9830736,10.1008 C68.5068758,10.1008 68.7382385,11.7981333 68.7382385,13.3968 L68.7475462,22.5728 L73.3974033,22.5728 L73.3974033,11.9328 C73.3974033,9.80746667 72.6700736,5.54746667 68.0760626,5.54746667 C65.8940736,5.54746667 64.6282275,6.27413333 63.6003923,8.10746667 C62.6430297,6.38213333 60.8931835,5.54213333 59.1646121,5.54213333 C57.2392495,5.54346667 55.4774363,6.62613333 54.6025132,8.3448 L53.6850407,6.05413333 L51.134733,6.05413333 L51.134733,22.5741333 L51.1334033,22.5741333 Z M1.22555714,22.5741333 L5.89137033,22.5741333 L5.89137033,13.3968 C5.89137033,11.8808 6.26500769,10.0008 7.8060956,10.0008 C8.51215055,10.0008 9.1237989,10.1888 9.6928978,10.6674667 C9.71018352,10.6874667 11.3935462,6.75813333 11.3736011,6.77546667 C10.3298099,5.81413333 9.23682088,5.58613333 8.44300769,5.58613333 C6.71443626,5.58613333 5.2744033,6.63813333 4.69333736,8.2128 L3.77852418,6.0528 L1.22555714,6.0528 L1.22555714,22.5741333 Z M43.753733,0.334133333 L48.4833703,0.334133333 L48.4833703,22.5848 L43.7524033,22.5848 L43.7524033,0.334133333 L43.753733,0.334133333 Z" id="Fill-12" fill="#FFFFFF" mask="url(#mask-4)"></path>
                </g>
            </g>
        </g>
    </g>
</svg>