<?xml version="1.0" encoding="UTF-8"?>
<svg width="161px" height="23px" viewBox="0 0 161 23" version="1.1" xmlns="http://www.w3.org/2000/svg" xmlns:xlink="http://www.w3.org/1999/xlink">
    <!-- Generator: Sketch 48.1 (47250) - http://www.bohemiancoding.com/sketch -->
    <title>logo/consumers/coursera</title>
    <desc>Created with Sketch.</desc>
    <defs>
        <path d="M81.0109815,16.6477407 C81.1092037,14.7588519 81.7863704,13.215 82.8447778,12.0105185 L82.8447778,10.4062222 L81.4381852,10.4062222 C78.5947778,10.4062222 76.1880185,11.4961111 74.7886667,13.957963 L74.7068148,13.957963 L74.7068148,10.676963 L67.4141296,10.676963 L67.4141296,30.6850185 L74.7083889,30.6850185 L74.7083889,22.6078148 C74.7083889,19.1794815 75.7113889,16.5658889 79.758963,16.5658889 C80.1997037,16.569037 80.6121111,16.5942222 81.0109815,16.6477407 Z M136.235796,16.5747037 C136.8415,14.8063889 137.824037,13.2313704 139.101241,11.9677037 L139.101241,10.4046481 L137.697167,10.4046481 C134.852815,10.4046481 132.448574,11.4939074 131.041981,13.9548148 L130.963278,13.9548148 L130.963278,10.676963 L123.66587,10.676963 L123.66587,30.6850185 L130.963278,30.6850185 L130.963278,22.6078148 C130.963278,19.1794815 131.969426,16.5658889 136.017,16.5658889 L136.235796,16.5747037 Z M95.8236481,15.8245 C94.6985,15.2395741 93.1322963,14.8495185 91.8865741,14.8495185 C91.0497963,14.8495185 89.6041667,15.1977037 89.6041667,16.2145556 C89.6041667,17.5808519 91.8865741,17.774463 92.8955556,17.9740556 C96.2955556,18.6351667 98.8675926,20.1966481 98.8675926,23.8969815 C98.8675926,29.1606852 93.9363333,31.3517963 89.1624815,31.3517963 C86.2343889,31.3517963 83.3541481,30.5317037 80.8649074,29.0489259 L83.5102963,24.0921667 C84.9915,25.1102778 87.4772778,26.1208333 89.2814815,26.1208333 C90.2042037,26.1208333 91.5664074,25.6936296 91.5664074,24.6012222 C91.5664074,23.041 89.2814815,22.9591481 86.9934074,22.3754815 C84.7116296,21.7905556 82.429537,20.7009815 82.429537,17.1120926 C82.429537,12.1968889 86.9934074,10.0161667 91.4921111,10.0161667 C93.8170185,10.0161667 96.1438148,10.3656111 98.2637778,11.3021852 L95.823963,15.8245 L95.8236481,15.8245 Z M160.975833,30.6850185 L153.681574,30.6850185 L153.681574,28.4592778 L153.601296,28.4592778 C152.318426,30.4482778 149.78763,31.3442407 147.386852,31.3442407 C141.289519,31.3442407 137.00363,26.3903148 137.00363,20.6562778 C137.00363,14.9282222 141.213333,10.0114444 147.304685,10.0114444 C149.66863,10.0114444 152.157556,10.869 153.680315,12.6225185 L153.680315,10.676963 L160.973,10.676963 L160.976148,30.6850185 L160.975833,30.6850185 Z M144.540926,20.6994074 C144.540926,23.233037 146.26737,25.1833148 149.229778,25.1833148 C152.195333,25.1833148 153.914222,23.2361852 153.914222,20.6994074 C153.914222,18.241963 152.195333,16.1755185 149.229778,16.1755185 C146.26737,16.1774074 144.540926,18.241963 144.540926,20.6994074 Z M122.515537,21.8724074 L107.157926,21.8724074 C107.157926,24.7561111 108.725389,26.3144444 111.730611,26.3144444 C113.293667,26.3144444 114.414722,25.8097963 115.218444,24.4822222 L122.235667,24.4822222 C121.073056,29.2022407 116.461333,31.3473889 111.772481,31.3473889 C104.962093,31.3473889 99.8712222,27.600463 99.8712222,20.7009815 C99.8712222,14.0322593 104.555667,10.0161667 111.249889,10.0161667 C118.384537,10.0161667 122.51837,14.3077222 122.51837,21.1297593 L122.515222,21.8727222 L122.515537,21.8724074 Z M115.739463,17.774463 C115.377426,15.8632222 113.573537,14.6156111 111.611611,14.6156111 C109.484407,14.6156111 107.727741,15.7039259 107.279759,17.774463 L115.739463,17.774463 Z M44.2132222,20.3512222 C44.2053235,20.1803083 44.1944082,20.0095471 44.1804815,19.8390185 L44.1804815,19.833037 C44.0167778,17.9768889 43.4035185,16.2397407 42.3630556,14.6707037 C41.9047513,13.9791175 41.3715918,13.3401707 40.7732407,12.7654444 C39.9052963,11.9302407 38.9004074,11.239537 37.7677037,10.6933333 C36.0632963,9.87922222 34.1800741,9.46838889 32.1706111,9.46838889 C31.9741667,9.46838889 31.7685926,9.47122222 31.5617593,9.47877778 C30.1507593,9.54268519 28.7857222,9.81059259 27.502537,10.2825 C26.2086481,10.75 25.0819259,11.3676667 24.160463,12.1090556 C23.9731481,12.257963 23.7691481,12.4408704 23.5503519,12.642037 L23.3923148,12.7966111 L23.1766667,13.0257963 L23.1795,13.0257963 L23.0784444,13.1255926 L23.0293333,13.1791111 L22.7718148,13.4501667 C22.5862808,13.6588506 22.405633,13.8718282 22.2300185,14.0889259 L22.2284444,14.0857778 L22.2221481,14.0797963 C21.8695556,14.5085741 21.5437222,14.9521481 21.3038333,15.3510185 C21.1406664,15.6086705 20.9829097,15.8697092 20.8306667,16.133963 L18.7273889,20.3871111 L18.7302222,20.3899444 L18.620037,20.6059074 L18.3877037,21.0762407 C17.9265,22.0096667 17.4322407,22.9399444 16.8797407,23.7080926 C15.6488148,25.0580185 14.2573333,25.7191296 12.4679259,25.7191296 C12.3426296,25.7191296 12.2148148,25.7128333 12.0838519,25.7055926 C11.0059259,25.662463 10.0816296,25.4080926 9.26153704,24.9226481 C9.17503379,24.8715552 9.08999949,24.8180151 9.00653704,24.7620926 C8.33692593,24.3169444 7.82346296,23.7452407 7.43938889,23.0321852 C7.0062037,22.2237407 6.81416667,21.3976667 6.84124074,20.5224815 C6.8425,20.4985556 6.84407407,20.4777778 6.84407407,20.4582593 C6.902,19.0652037 7.43340741,17.9812963 8.50377778,17.045037 C8.75860863,16.8265891 9.03207206,16.6308668 9.32103704,16.4601111 C9.36101852,16.4361852 9.40131481,16.4138333 9.44161111,16.3930556 C10.2365185,15.9598704 11.1416111,15.7442222 12.1789259,15.7442222 L12.5019259,15.753037 C14.1499815,15.8156852 15.4212037,16.3307222 16.4349074,17.3352963 L19.614537,11.6267593 C18.8536296,11.1177037 17.9948148,10.6797963 17.0481667,10.3240556 C17.0122778,10.3108333 16.9751296,10.2957222 16.9379815,10.2840741 C16.8246481,10.2437778 16.7132037,10.2022222 16.597037,10.1647593 C15.5908889,9.82853704 14.5353148,9.6217037 13.4488889,9.52788889 C13.4218148,9.52316667 13.3922222,9.52033333 13.365463,9.5175 C13.1986111,9.5067963 13.0289259,9.48601852 12.8623889,9.47877778 C12.6812373,9.47184338 12.499985,9.4678552 12.3187037,9.46681481 L12.2157593,9.46681481 C10.2166852,9.47405556 8.35927778,9.88362963 6.66053704,10.6945926 C4.75811111,11.6116481 3.21583333,12.9470926 2.07274074,14.6675556 C0.932796296,16.388963 0.310407407,18.2989444 0.221314815,20.3487037 C0.213658739,20.5222729 0.209670195,20.6959845 0.209351852,20.8697222 C0.207777778,23.7361111 1.25296296,26.2577778 3.33074074,28.3745926 C5.49981481,30.5956111 8.32055556,31.792537 11.7070185,31.9338889 C11.9242407,31.9427037 12.1389444,31.9486852 12.3530185,31.9486852 C14.2689815,31.9486852 16.0417037,31.6077407 17.6315185,30.9261667 C18.0291296,30.7561667 18.4147778,30.5568889 18.8089259,30.3352593 C19.0236296,30.211537 19.2260556,30.0805741 19.4269074,29.9407963 L19.5758148,29.841 L19.8257778,29.6697407 C20.1242454,29.4535773 20.4100438,29.2204398 20.6817593,28.9714815 L20.7771481,28.8808148 C20.9385416,28.7287415 21.0963081,28.5728644 21.2503148,28.4133148 L21.8204444,27.7688889 L22.0376667,27.4962593 L22.139037,27.3476667 L22.2404074,27.2015926 C23.0872593,25.7786296 25.8440926,20.5999259 25.8440926,20.5999259 L25.8440926,20.589537 L26.0077963,20.2737778 L26.1447407,20.0266481 C26.5511667,19.2868333 26.8445741,18.7614074 27.2330556,18.2092222 L27.2434444,18.1928519 C28.1501111,16.8785 29.7084444,15.9419259 31.5453889,15.7845185 C34.6267963,15.5194444 37.326963,17.5437037 37.5756667,20.3065185 C37.8227963,23.0693333 35.5243333,25.5239444 32.4429259,25.7905926 C31.8013333,25.8456852 31.1776852,25.8025556 30.5896111,25.6728519 L30.5748148,25.6791481 C28.3138148,25.2085 26.8741667,23.5591852 26.1642593,22.8222037 L23.1987037,28.2747963 C23.1987037,28.2747963 24.1204815,29.2038148 24.7516852,29.6681667 C25.384463,30.1309444 26.2014074,30.5867963 26.8533889,30.8695 C28.4356481,31.5454074 30.1564259,31.9502593 32.0572778,31.9502593 C32.2776481,31.9502593 32.2332593,31.9502593 32.4624444,31.9414444 C35.8457593,31.7997778 38.8616852,30.5033704 41.0367407,28.2823519 C43.0968889,26.1730926 44.2147963,23.7647593 44.2251852,20.9137963 L44.2251852,20.8287963 C44.2233898,20.6695576 44.2194017,20.5103511 44.2132222,20.3512222 Z M55.5563148,31.3609259 C54.0184444,31.3609259 52.6238148,31.1821111 51.3717963,30.8247963 C50.1197778,30.4674815 49.0509815,29.9033333 48.1654074,29.1295185 C47.2766852,28.3550741 46.591963,27.3697037 46.1096667,26.1746667 C45.6273704,24.9793148 45.3862222,23.5384074 45.3862222,21.8591852 L45.3862222,10.6725556 L52.4226481,10.6725556 L52.4226481,21.7697778 C52.4226481,23.0277778 52.7232963,23.9388519 53.3230185,24.5074074 C53.9246296,25.0772222 54.6883704,25.3618148 55.6142407,25.3618148 C56.5608889,25.3618148 57.329037,25.0967407 57.9218333,24.5653333 C58.5111667,24.0339259 58.8086667,23.1527593 58.8086667,21.9142778 L58.8086667,10.6722407 L65.8450926,10.6722407 L65.8450926,21.7118519 C65.8450926,23.4505741 65.5982778,24.9286296 65.1052778,26.1447593 C64.6125926,27.362463 63.9174815,28.356963 63.0227778,29.1307778 C62.1236667,29.9052222 61.0416481,30.4674815 59.7688519,30.8263704 C58.4960556,31.1821111 57.0922963,31.3606111 55.5563148,31.3606111 L55.5563148,31.3609259 Z" id="path-1"></path>
    </defs>
    <g id="Homepage-desktop" stroke="none" stroke-width="1" fill="none" fill-rule="evenodd" transform="translate(-921.000000, -691.000000)">
        <g id="logo/consumers/coursera" transform="translate(921.000000, 682.000000)">
            <mask id="mask-2" fill="white">
                <use xlink:href="#path-1"></use>
            </mask>
            <use id="Mask" fill="#FFFFFF" fill-rule="nonzero" xlink:href="#path-1"></use>
        </g>
    </g>
</svg>