<?xml version="1.0" encoding="UTF-8"?>
<svg width="159px" height="50px" viewBox="0 0 159 50" version="1.1" xmlns="http://www.w3.org/2000/svg" xmlns:xlink="http://www.w3.org/1999/xlink">
    <!-- Generator: Sketch 48.1 (47250) - http://www.bohemiancoding.com/sketch -->
    <title>logo/consumers/duckduckgo</title>
    <desc>Created with Sketch.</desc>
    <defs>
        <path d="M137.166167,29.9861667 C136.1995,28.7161667 135.7095,27.2278333 135.7095,25.5611667 C135.7095,24.3211667 135.9895,23.1511667 136.542833,22.0845 C137.097833,21.0128333 137.872833,20.1628333 138.842833,19.5578333 C139.8145,18.9511667 140.926167,18.6445 142.1495,18.6445 C142.161167,18.6445 142.172833,18.6428333 142.186167,18.6428333 C143.1345,18.6428333 144.091167,18.8528333 144.9545,19.2495 C145.821167,19.6478333 146.6795,20.2961667 147.5045,21.1728333 L147.646167,21.3228333 L146.462833,22.5845 L146.301167,22.4078333 C145.692833,21.7311667 145.016167,21.2128333 144.291167,20.8661667 C142.677833,20.0895 141.142833,20.2061667 139.7595,21.0511667 C138.9995,21.5128333 138.381167,22.1745 137.9695,22.9645 C137.547833,23.7695 137.3345,24.6328333 137.3345,25.5328333 C137.332833,26.4478333 137.5595,27.3595 137.992833,28.1661667 C138.431167,28.9945 139.041167,29.6511667 139.811167,30.1211667 C140.5645,30.5861667 141.4295,30.8328333 142.312833,30.8328333 L142.347833,30.8328333 C143.4545,30.8328333 144.401167,30.4778333 145.162833,29.7778333 C145.871167,29.1278333 146.316167,28.2878333 146.492833,27.2761667 L142.912833,27.2761667 L142.912833,25.6045 L148.2395,25.6045 L148.237833,25.8245 C148.226167,27.8445 147.682833,29.4745 146.621167,30.6711667 C145.551167,31.8745 144.106167,32.4845 142.321167,32.4845 C140.161167,32.4845 138.426167,31.6445 137.166167,29.9861667 M157.026167,27.2761667 C157.031167,27.8995 156.886167,28.5261667 156.607833,29.0861667 C156.336167,29.6378333 155.961167,30.0678333 155.4945,30.3678333 C155.0395,30.6628333 154.521167,30.8045 153.9645,30.8145 L153.947833,30.8145 C153.411167,30.8145 152.8895,30.6595 152.437833,30.3678333 C151.9745,30.0695 151.5995,29.6395 151.3245,29.0861667 C151.046167,28.5278333 150.901167,27.9011667 150.906167,27.2745 C150.906167,26.2745 151.212833,25.4111667 151.817833,24.7095 C152.4245,24.0061667 153.126167,23.6661667 153.966167,23.6661667 C154.7995,23.6661667 155.501167,24.0078333 156.1095,24.7095 C156.717833,25.4111667 157.026167,26.2745 157.026167,27.2761667 M153.9695,22.0411667 C152.6095,22.0411667 151.466167,22.6045 150.577833,23.7111667 C149.776167,24.7078333 149.3695,25.8978333 149.3695,27.2511667 C149.3695,28.6161667 149.7995,29.8278333 150.646167,30.8478333 C151.502833,31.8828333 152.6195,32.4078333 153.971167,32.4078333 C155.316167,32.4078333 156.432833,31.8828333 157.287833,30.8495 C158.132833,29.8261667 158.562833,28.6161667 158.562833,27.2511667 C158.562833,25.8911667 158.156167,24.6978333 157.3545,23.7011667 C156.466167,22.5995 155.326167,22.0411667 153.9695,22.0411667 M31.1845,43.8128333 C30.6095,44.0278333 27.9211667,43.0328333 26.6595,42.5428333 C26.6161667,42.6928333 26.5561667,42.8095 26.4678333,42.8695 C25.8995,43.2461667 24.2961667,43.4361667 23.4478333,43.2461667 C23.3778333,43.2311667 23.3278333,43.2028333 23.2728333,43.1811667 C21.8478333,43.9878333 19.3828333,45.3045 18.9178333,45.0395 C18.2578333,44.6595 18.1611667,39.6595 18.2578333,38.4311667 C18.3295,37.5011667 21.6111667,39.0195 23.1845,39.8028333 C24.0061667,39.2661667 26.2178333,39.0878333 26.3711667,39.4695 C26.4011667,39.5428333 26.4361667,39.6678333 26.4728333,39.8211667 C27.3811667,39.1528333 30.1928333,37.1411667 30.9028333,37.2995 C31.7511667,37.4895 31.9395,43.5278333 31.1845,43.8128333 M22.6728333,28.4528333 C22.8295,27.5028333 25.2811667,25.7078333 27.0178333,25.5995 C28.7561667,25.4911667 29.2978333,25.5145 30.7495,25.1678333 C32.1995,24.8211667 35.9411667,23.8895 36.9761667,23.4111667 C38.0111667,22.9328333 42.4011667,23.6495 39.3061667,25.3728333 C37.9661667,26.1245 34.3578333,27.4995 31.7811667,28.2695 C29.2045,29.0395 27.6445,27.5328333 26.7861667,28.7995 C26.1061667,29.8061667 26.6478333,31.1845 29.7245,31.4711667 C33.8811667,31.8578333 37.8678333,29.6011667 38.3061667,30.7995 C38.7478333,31.9961667 34.7345,33.4945 32.2895,33.5428333 C29.8478333,33.5895 24.9261667,31.9278333 24.1895,31.4145 C23.4545,30.9011667 22.4678333,29.7028333 22.6728333,28.4528333 M18.6811667,18.0195 C18.6811667,18.0195 17.5128333,17.4928333 16.3811667,18.2061667 C15.2478333,18.9178333 15.2895,19.6461667 15.2895,19.6461667 C15.2895,19.6461667 14.6861667,18.3045 16.2928333,17.6478333 C17.8995,16.9878333 18.6811667,18.0195 18.6811667,18.0195 M29.3895,17.9145 C29.3895,17.9145 28.5528333,17.4361667 27.9011667,17.4428333 C26.5645,17.4611667 26.1978333,18.0528333 26.1978333,18.0528333 C26.1978333,18.0528333 26.4245,16.6445 28.1361667,16.9261667 C29.0611667,17.0795 29.3895,17.9145 29.3895,17.9145 M29.1795,20.8028333 C29.2711667,20.8011667 29.3595,20.8378333 29.4245,20.9028333 C29.4895,20.9678333 29.5245,21.0561667 29.5245,21.1478333 C29.5245,21.2378333 29.4895,21.3261667 29.4228333,21.3911667 C29.3595,21.4545 29.2711667,21.4911667 29.1795,21.4911667 C28.9911667,21.4911667 28.8345,21.3378333 28.8345,21.1478333 C28.8345,20.9561667 28.9911667,20.8028333 29.1795,20.8028333 M29.9178333,21.5878333 C29.9178333,20.8545 29.3245,20.2595 28.5895,20.2595 C27.8561667,20.2595 27.2595,20.8545 27.2595,21.5878333 C27.2595,22.3245 27.8561667,22.9211667 28.5895,22.9211667 C29.3245,22.9211667 29.9178333,22.3245 29.9178333,21.5878333 M18.9295,21.5878333 C19.1511667,21.5878333 19.3311667,21.7678333 19.3311667,21.9911667 C19.3311667,22.2128333 19.1495,22.3928333 18.9278333,22.3928333 C18.7061667,22.3928333 18.5261667,22.2128333 18.5261667,21.9911667 C18.5261667,21.7678333 18.7078333,21.5878333 18.9295,21.5878333 M19.7878333,22.5061667 C19.7878333,21.6528333 19.0978333,20.9578333 18.2428333,20.9578333 C17.3861667,20.9578333 16.6928333,21.6528333 16.6928333,22.5061667 C16.6928333,23.3628333 17.3861667,24.0545 18.2428333,24.0545 C19.0978333,24.0545 19.7878333,23.3628333 19.7878333,22.5061667" id="path-1"></path>
    </defs>
    <g id="Homepage-desktop" stroke="none" stroke-width="1" fill="none" fill-rule="evenodd" transform="translate(-1182.000000, -677.000000)">
        <g id="logo/consumers/duckduckgo" transform="translate(1182.000000, 677.000000)">
            <path d="M56.6723333,30.52 C58.209,30.52 59.2823333,30.4133333 59.8623333,30.2033333 C60.664,29.9116667 61.304,29.375 61.7623333,28.6116667 C62.2273333,27.84 62.464,26.8766667 62.464,25.75 C62.464,24.565 62.2073333,23.5433333 61.7023333,22.7116667 C61.2006667,21.8883333 60.4956667,21.3166667 59.604,21.0116667 C58.9206667,20.7783333 57.7623333,20.66 56.164,20.66 L55.5806667,20.66 L55.5806667,30.52 L56.6723333,30.52 Z M57.884,32.1616667 L54.054,32.1616667 L54.054,18.9666667 L56.6273333,18.9666667 C58.369,18.9666667 59.6023333,19.1233333 60.4023333,19.4433333 C61.544,19.8933333 62.449,20.6833333 63.0906667,21.7916667 C63.7256667,22.89 64.049,24.2133333 64.049,25.7266667 C64.049,27.0333333 63.7923333,28.2016667 63.289,29.1983333 C62.7823333,30.2033333 62.109,30.9566667 61.2923333,31.4383333 C60.4773333,31.9183333 59.3306667,32.1616667 57.884,32.1616667 Z M133.929,22.285 L131.719,22.285 L128.135667,25.7866667 L128.135667,18.645 L126.620667,18.645 L126.620667,32.1616667 L128.135667,32.1616667 L128.135667,28.2383333 L132.032333,32.1616667 L134.189,32.1616667 L129.092333,27.0116667 L133.929,22.285 Z M106.679,22.2866667 L106.679,27.0516667 C106.679,28.4166667 106.820667,29.4583333 107.099,30.1483333 C107.385667,30.855 107.825667,31.415 108.405667,31.81 C108.987333,32.2066667 109.720667,32.4083333 110.577333,32.4083333 C111.439,32.4083333 112.165667,32.2066667 112.742333,31.8083333 C113.319,31.4133333 113.755667,30.86 114.039,30.1633333 C114.322333,29.4716667 114.460667,28.4816667 114.460667,27.1383333 L114.460667,22.2866667 L112.915667,22.2866667 L112.915667,26.9166667 C112.915667,28.3516667 112.832333,28.935 112.762333,29.1733333 C112.629,29.6433333 112.355667,30.05 111.969,30.35 C111.585667,30.65 111.127333,30.795 110.570667,30.795 C110.012333,30.795 109.547333,30.645 109.149,30.3366667 C108.750667,30.0283333 108.485667,29.6166667 108.342333,29.085 C108.245667,28.6983333 108.197333,27.97 108.197333,26.9166667 L108.197333,22.2866667 L106.679,22.2866667 Z M65.4923333,22.2866667 L65.4923333,26.6983333 L65.4923333,26.6966667 L65.4923333,27.0516667 C65.4923333,28.4166667 65.6323333,29.4583333 65.9106667,30.1483333 C66.1973333,30.8566667 66.6373333,31.415 67.219,31.81 C67.8006667,32.2066667 68.5323333,32.4083333 69.389,32.4083333 C70.2506667,32.4083333 70.979,32.2066667 71.554,31.81 C72.129,31.415 72.5656667,30.86 72.8523333,30.1633333 C73.1356667,29.47 73.2723333,28.48 73.2723333,27.1383333 L73.2723333,22.2866667 L71.7273333,22.2866667 L71.7273333,26.9166667 C71.7273333,28.0716667 71.6756667,28.83 71.574,29.1733333 C71.4406667,29.6433333 71.1673333,30.05 70.7806667,30.3516667 C70.3973333,30.65 69.9406667,30.795 69.3823333,30.795 C68.8256667,30.795 68.3606667,30.645 67.9623333,30.3366667 C67.5623333,30.0283333 67.2973333,29.6166667 67.1556667,29.085 C67.0573333,28.7016667 67.009,27.9716667 67.009,26.9166667 L67.009,22.2866667 L65.4923333,22.2866667 Z M122.624,22.3416667 C122.087333,22.1433333 121.525667,22.0416667 120.952333,22.0416667 C120.000667,22.0383333 119.175667,22.2716667 118.425667,22.7333333 C117.682333,23.1916667 117.089,23.8366667 116.660667,24.6533333 C116.237333,25.4683333 116.017333,26.385 116.024,27.3016667 C116.024,28.7133333 116.484,29.9283333 117.392333,30.9133333 C118.305667,31.9033333 119.469,32.4066667 120.854,32.4066667 C121.752333,32.4066667 122.565667,32.2083333 123.269,31.8183333 C123.974,31.43 124.564,30.8566667 124.969,30.16 L125.069,29.99 L123.874,29.1066667 L123.744,29.29 C123.000667,30.34 122.072333,30.8516667 120.904,30.8516667 C120.277333,30.8516667 119.702333,30.6933333 119.199,30.3816667 C118.694,30.0683333 118.290667,29.6216667 117.999,29.0533333 C117.709,28.4866667 117.555667,27.85 117.559,27.2133333 C117.559,26.2166667 117.879,25.3583333 118.512333,24.6633333 C119.150667,23.965 119.932333,23.625 120.897333,23.625 C122.107333,23.625 123.039,24.1333333 123.740667,25.1816667 L123.865667,25.3683333 L125.064,24.5316667 L124.972333,24.36 C124.709,23.8633333 124.382333,23.4466667 124.004,23.125 C123.627333,22.8033333 123.162333,22.54 122.624,22.3416667 Z M101.050667,30.2033333 C101.852333,29.9116667 102.492333,29.3766667 102.950667,28.6116667 C103.415667,27.84 103.652333,26.875 103.652333,25.75 C103.652333,24.5683333 103.397333,23.545 102.890667,22.7116667 C102.390667,21.8883333 101.685667,21.3183333 100.792333,21.0116667 C100.109,20.7783333 98.9506667,20.66 97.3523333,20.66 L96.769,20.66 L96.769,30.52 L97.8606667,30.52 C99.3973333,30.52 100.470667,30.4133333 101.050667,30.2033333 Z M104.279,21.7916667 C104.915667,22.89 105.239,24.215 105.239,25.7266667 C105.239,27.03 104.982333,28.1983333 104.477333,29.1983333 C103.969,30.2033333 103.297333,30.9566667 102.480667,31.4383333 C101.667333,31.9183333 100.519,32.1616667 99.0723333,32.1616667 L95.2423333,32.1616667 L95.2423333,18.9666667 L97.8156667,18.9666667 C99.5556667,18.9666667 100.792333,19.1233333 101.592333,19.4433333 C102.734,19.895 103.639,20.685 104.279,21.7916667 Z M85.4323333,18.645 L85.4323333,32.1616667 L86.949,32.1616667 L86.949,28.2383333 L90.844,32.1616667 L93.0006667,32.1616667 L87.904,27.0116667 L92.739,22.285 L90.5306667,22.285 L86.949,25.7866667 L86.949,18.645 L85.4323333,18.645 Z M79.7106667,23.625 C80.9206667,23.625 81.8506667,24.1333333 82.554,25.1816667 L82.679,25.3683333 L83.8773333,24.53 L83.7856667,24.3583333 C83.5206667,23.8616667 83.194,23.4466667 82.8173333,23.125 C82.4406667,22.805 81.9756667,22.54 81.4356667,22.3416667 C80.899,22.1433333 80.3356667,22.0416667 79.764,22.0416667 L79.7523333,22.0416667 C78.829,22.0416667 77.984,22.275 77.239,22.7333333 C76.494,23.1916667 75.9006667,23.8383333 75.474,24.6533333 C75.0506667,25.4616667 74.8356667,26.3533333 74.8356667,27.3016667 C74.8356667,28.7116667 75.2956667,29.9283333 76.204,30.9133333 C77.1173333,31.9033333 78.2823333,32.4066667 79.6673333,32.4066667 C80.5656667,32.4066667 81.379,32.2083333 82.0823333,31.8183333 C82.7873333,31.43 83.3756667,30.8583333 83.7823333,30.16 L83.8823333,29.9916667 L82.6856667,29.1066667 L82.5573333,29.29 C81.814,30.34 80.884,30.8516667 79.7173333,30.8516667 C79.089,30.8516667 78.514,30.6933333 78.0123333,30.3816667 C77.5056667,30.0683333 77.1023333,29.6216667 76.8123333,29.0533333 C76.5206667,28.4866667 76.369,27.85 76.3706667,27.2133333 C76.3706667,26.215 76.6923333,25.3566667 77.3256667,24.6633333 C77.964,23.965 78.744,23.625 79.7106667,23.625 Z M47.5706667,25 C47.5706667,37.4466667 37.444,47.5733333 24.999,47.5733333 C12.5523333,47.5733333 2.42733333,37.4466667 2.42733333,25 C2.42733333,12.5533333 12.5523333,2.42833333 24.999,2.42833333 C37.444,2.42833333 47.5706667,12.5533333 47.5706667,25 Z M49.999,25 C49.999,11.215 38.7823333,0 24.999,0 C11.214,0 0.000666666667,11.215 0.000666666667,24.9983333 C0.000666666667,38.7833333 11.214,50 24.999,50 C38.7823333,50 49.999,38.785 49.999,25 Z M29.0406667,45.9833333 C28.234,44.4283333 27.4973333,43.0366667 27.0056667,42.0533333 C25.384,38.8116667 23.7623333,34.24 24.499,31.2933333 C24.6356667,30.76 24.6373333,28.5683333 25.0823333,28.2766667 C28.5223333,26.0316667 28.2773333,28.2016667 29.6556667,27.195 C30.3673333,26.6766667 30.9356667,26.0483333 31.1823333,25.1866667 C32.0673333,22.0916667 29.9556667,16.7 27.5973333,14.34 C26.829,13.5733333 25.649,13.09 24.3173333,12.835 C23.8023333,12.1316667 22.9773333,11.46 21.8073333,10.8383333 C19.7673333,9.755 17.2773333,9.285 14.9106667,9.58333333 C14.7406667,9.58833333 14.6023333,9.61166667 14.484,9.64166667 C14.4373333,9.64833333 14.3873333,9.65166667 14.3406667,9.66 C14.3523333,9.66166667 14.3673333,9.66833333 14.3806667,9.67166667 C14.199,9.72666667 14.0506667,9.79333333 13.869,9.82333333 C14.159,9.84833333 15.224,10.34 15.9456667,10.64 C15.5573333,10.8433333 14.8906667,10.925 14.4423333,11.1516667 C14.4273333,11.1583333 14.4106667,11.1616667 14.3956667,11.1683333 C14.3406667,11.1933333 14.2873333,11.2316667 14.2373333,11.2766667 C14.2273333,11.2833333 14.2206667,11.2916667 14.2123333,11.3 C13.9556667,11.5433333 13.7773333,11.9883333 13.779,12.2216667 C15.5056667,12.0483333 18.0606667,12.1733333 19.919,12.7333333 C18.499,12.9066667 17.1806667,13.26 16.2456667,13.7516667 C15.669,14.055 15.184,14.425 14.7756667,14.8516667 C12.9273333,16.605 12.189,19.5433333 12.7956667,22.95 C13.4473333,26.5883333 16.0456667,38.7016667 17.3573333,44.955 C9.33733333,41.8716667 3.62733333,34.0916667 3.62733333,24.9983333 C3.62733333,13.2166667 13.214,3.62833333 24.999,3.62833333 C36.7823333,3.62833333 46.369,13.2166667 46.369,25 C46.369,35.4016667 38.8973333,44.0883333 29.0406667,45.9833333 Z" id="Mask" fill="#FFFFFF"></path>
            <mask id="mask-2" fill="white">
                <use xlink:href="#path-1"></use>
            </mask>
            <use id="Mask" fill="#71A7FF" xlink:href="#path-1"></use>
        </g>
    </g>
</svg>