<?xml version="1.0" encoding="UTF-8"?>
<svg width="120px" height="120px" viewBox="0 0 120 120" version="1.1" xmlns="http://www.w3.org/2000/svg" xmlns:xlink="http://www.w3.org/1999/xlink">
    <!-- Generator: Sketch 48.1 (47250) - http://www.bohemiancoding.com/sketch -->
    <title>illustration/domain</title>
    <desc>Created with Sketch.</desc>
    <defs></defs>
    <g id="Symbols" stroke="none" stroke-width="1" fill="none" fill-rule="evenodd">
        <g id="illustration/domain">
            <path d="M100.0028,61.0636 C100.0028,60.2346 99.3318,59.5636 98.5028,59.5636 L18.5028,59.5636 C17.6738,59.5636 17.0028,60.2346 17.0028,61.0636 C17.0028,61.8926 17.6738,62.5636 18.5028,62.5636 L98.5028,62.5636 C99.3318,62.5636 100.0028,61.8926 100.0028,61.0636 M28.0548,88.3136 C37.7448,84.4736 47.9888,82.5256 58.5028,82.5256 C68.6558,82.5256 78.5688,84.3446 87.9688,87.9326 C88.7428,88.2296 89.6098,87.8396 89.9048,87.0656 C90.1998,86.2916 89.8118,85.4246 89.0378,85.1296 C79.2958,81.4116 69.0228,79.5256 58.5028,79.5256 C47.6078,79.5256 36.9928,81.5446 26.9498,85.5246 C26.1798,85.8306 25.8028,86.7026 26.1078,87.4726 C26.3408,88.0616 26.9058,88.4196 27.5028,88.4196 C27.6868,88.4196 27.8738,88.3856 28.0548,88.3136 M58.5028,42.5636 C47.6078,42.5636 36.9918,40.5456 26.9508,36.5646 C26.1808,36.2596 25.8038,35.3876 26.1088,34.6176 C26.4138,33.8476 27.2858,33.4696 28.0558,33.7756 C37.7438,37.6166 47.9878,39.5636 58.5028,39.5636 C68.6548,39.5636 78.5688,37.7446 87.9678,34.1576 C88.7418,33.8626 89.6088,34.2506 89.9038,35.0246 C90.1998,35.7986 89.8118,36.6656 89.0378,36.9606 C79.2948,40.6786 69.0228,42.5636 58.5028,42.5636" id="Mask" fill="#C2D9FF"></path>
            <path d="M63.7401,98.1901 C72.8641,88.0481 78.0031,74.8171 78.0031,61.0641 C78.0031,47.3101 72.8641,34.0791 63.7401,23.9371 C81.9461,26.4931 96.0031,42.1641 96.0031,61.0641 C96.0031,79.9631 81.9461,95.6341 63.7401,98.1901 M21.0031,61.0641 C21.0031,42.1641 35.0591,26.4931 53.2651,23.9371 C44.1411,34.0791 39.0031,47.3101 39.0031,61.0641 C39.0031,74.8171 44.1411,88.0481 53.2651,98.1901 C35.0591,95.6341 21.0031,79.9631 21.0031,61.0641 M75.0031,61.0641 C75.0031,75.1721 69.2811,88.6951 59.2391,98.5451 C58.9931,98.5501 58.7491,98.5641 58.5031,98.5641 C58.2561,98.5641 58.0121,98.5501 57.7671,98.5451 C47.7241,88.6951 42.0031,75.1721 42.0031,61.0641 C42.0031,46.9551 47.7241,33.4321 57.7671,23.5821 C58.0121,23.5771 58.2561,23.5641 58.5031,23.5641 C58.7491,23.5641 58.9931,23.5771 59.2391,23.5821 C69.2811,33.4321 75.0031,46.9551 75.0031,61.0641 M58.5031,18.5641 C35.0681,18.5641 16.0031,37.6291 16.0031,61.0641 C16.0031,84.4981 35.0681,103.5641 58.5031,103.5641 C81.9371,103.5641 101.0031,84.4981 101.0031,61.0641 C101.0031,37.6291 81.9371,18.5641 58.5031,18.5641" id="Mask" fill="#3884FF"></path>
            <path d="M27.807,15.6158 C27.301,16.2938 27.441,17.2538 28.119,17.7598 C28.797,18.2648 29.756,18.1258 30.262,17.4478 C30.768,16.7698 30.629,15.8098 29.951,15.3038 C29.273,14.7988 28.313,14.9378 27.807,15.6158 M6.807,49.6788 C6.301,50.3578 6.441,51.3168 7.119,51.8228 C7.797,52.3288 8.756,52.1898 9.262,51.5118 C9.768,50.8338 9.629,49.8738 8.951,49.3678 C8.273,48.8618 7.313,49.0018 6.807,49.6788 M27.807,102.6158 C27.301,103.2938 27.441,104.2538 28.119,104.7598 C28.797,105.2648 29.756,105.1258 30.262,104.4478 C30.768,103.7698 30.629,102.8098 29.951,102.3038 C29.273,101.7988 28.313,101.9378 27.807,102.6158 M101.744,28.6788 C101.238,29.3578 101.377,30.3168 102.055,30.8228 C102.733,31.3288 103.693,31.1898 104.199,30.5118 C104.704,29.8338 104.565,28.8738 103.887,28.3678 C103.209,27.8618 102.249,28.0018 101.744,28.6788 M20.015,79.5988 C1.978,79.5988 1.283,75.6498 1.053,74.3448 C0.544,71.4608 3.715,68.5998 11.031,65.3408 C11.789,65.0028 12.674,65.3448 13.011,66.1008 C13.349,66.8578 13.008,67.7438 12.251,68.0808 C5.21,71.2178 3.913,73.2898 4.007,73.8238 C4.146,74.6128 7.333,76.6538 20.482,76.5978 C31.515,76.5558 45.949,75.0588 61.125,72.3838 C76.3,69.7078 90.375,66.1778 100.758,62.4428 C113.09,58.0078 115.429,54.9898 115.29,54.2008 C115.189,53.6268 113.063,52.0328 104.558,51.5608 C103.731,51.5148 103.098,50.8078 103.144,49.9808 C103.189,49.1528 103.91,48.5328 104.724,48.5658 C113.418,49.0478 117.714,50.6738 118.245,53.6798 C118.477,54.9968 119.183,59.0038 101.773,65.2658 C91.235,69.0558 76.984,72.6338 61.645,75.3378 C46.307,78.0418 31.692,79.5548 20.493,79.5978 C20.333,79.5978 20.173,79.5988 20.015,79.5988" id="Mask" fill="#C2D9FF"></path>
        </g>
    </g>
</svg>