<?xml version="1.0" encoding="UTF-8"?>
<svg width="120px" height="120px" viewBox="0 0 120 120" version="1.1" xmlns="http://www.w3.org/2000/svg" xmlns:xlink="http://www.w3.org/1999/xlink">
    <!-- Generator: Sketch 48.1 (47250) - http://www.bohemiancoding.com/sketch -->
    <title>illustration/draft</title>
    <desc>Created with Sketch.</desc>
    <defs></defs>
    <g id="Symbols" stroke="none" stroke-width="1" fill="none" fill-rule="evenodd">
        <g id="illustration/draft">
            <path d="M47.5,69 L24.5,69 C23.672,69 23,69.671 23,70.5 C23,71.329 23.672,72 24.5,72 L47.5,72 C51.636,72 55,75.364 55,79.5 C55,80.329 55.672,81 56.5,81 C57.328,81 58,80.329 58,79.5 C58,73.71 53.29,69 47.5,69 M99.5,54 C98.672,54 98,54.671 98,55.5 L98,61.5 C98,68.944 91.944,75 84.5,75 C83.672,75 83,75.671 83,76.5 C83,77.329 83.672,78 84.5,78 C93.598,78 101,70.598 101,61.5 L101,55.5 C101,54.671 100.328,54 99.5,54 M93.5,43.5 C92.396,43.5 91.5,44.396 91.5,45.5 C91.5,46.604 92.396,47.5 93.5,47.5 C94.604,47.5 95.5,46.604 95.5,45.5 C95.5,44.396 94.604,43.5 93.5,43.5 M56.5,26.5 C55.396,26.5 54.5,27.396 54.5,28.5 C54.5,29.604 55.396,30.5 56.5,30.5 C57.604,30.5 58.5,29.604 58.5,28.5 C58.5,27.396 57.604,26.5 56.5,26.5 M56.5,88.5 C55.396,88.5 54.5,89.396 54.5,90.5 C54.5,91.604 55.396,92.5 56.5,92.5 C57.604,92.5 58.5,91.604 58.5,90.5 C58.5,89.396 57.604,88.5 56.5,88.5 M22,70.5 C22,69.671 21.328,69 20.5,69 L19.5,69 C18.672,69 18,69.671 18,70.5 C18,71.329 18.672,72 19.5,72 L20.5,72 C21.328,72 22,71.329 22,70.5 M58,105.5 L58,97.5 C58,96.671 57.328,96 56.5,96 C55.672,96 55,96.671 55,97.5 L55,105.5 C55,106.329 55.672,107 56.5,107 C57.328,107 58,106.329 58,105.5 M58,110.5 L58,109.5 C58,108.671 57.328,108 56.5,108 C55.672,108 55,108.671 55,109.5 L55,110.5 C55,111.329 55.672,112 56.5,112 C57.328,112 58,111.329 58,110.5 M58,10.5 L58,9.5 C58,8.671 57.328,8 56.5,8 C55.672,8 55,8.671 55,9.5 L55,10.5 C55,11.329 55.672,12 56.5,12 C57.328,12 58,11.329 58,10.5 M58,22.5 L58,14.5 C58,13.671 57.328,13 56.5,13 C55.672,13 55,13.671 55,14.5 L55,22.5 C55,23.329 55.672,24 56.5,24 C57.328,24 58,23.329 58,22.5 M95,17.5 L95,16.5 C95,15.671 94.328,15 93.5,15 C92.672,15 92,15.671 92,16.5 L92,17.5 C92,18.328 92.672,19 93.5,19 C94.328,19 95,18.328 95,17.5 M95,38.5 L95,21.5 C95,20.671 94.328,20 93.5,20 C92.672,20 92,20.671 92,21.5 L92,38.5 C92,39.329 92.672,40 93.5,40 C94.328,40 95,39.329 95,38.5 M50.5,63 C49.672,63 49,62.329 49,61.5 L49,40.5 C49,39.671 49.672,39 50.5,39 C51.328,39 52,39.671 52,40.5 L52,61.5 C52,62.329 51.328,63 50.5,63" id="Mask" fill="#C2D9FF"></path>
            <path d="M93.5,49 C91.57,49 90,47.43 90,45.5 C90,43.57 91.57,42 93.5,42 C95.43,42 97,43.57 97,45.5 C97,47.43 95.43,49 93.5,49 M56.5,94 C54.57,94 53,92.43 53,90.5 C53,88.57 54.57,87 56.5,87 C58.43,87 60,88.57 60,90.5 C60,92.43 58.43,94 56.5,94 M56.5,25 C58.43,25 60,26.57 60,28.5 C60,30.43 58.43,32 56.5,32 C54.57,32 53,30.43 53,28.5 C53,26.57 54.57,25 56.5,25 M102,45.5 C102,40.813 98.187,37 93.5,37 C88.813,37 85,40.813 85,45.5 C85,49.317 87.529,52.553 91,53.624 L91,61.5 C91,65.084 88.084,68 84.5,68 L65.5,68 C63.089,68 60.851,68.749 59,70.022 L59,36.624 C62.471,35.553 65,32.317 65,28.5 C65,23.813 61.187,20 56.5,20 C51.813,20 48,23.813 48,28.5 C48,32.317 50.529,35.553 54,36.624 L54,82.376 C50.529,83.447 48,86.683 48,90.5 C48,95.187 51.813,99 56.5,99 C61.187,99 65,95.187 65,90.5 C65,86.683 62.471,83.447 59,82.376 L59,79.5 C59,75.916 61.916,73 65.5,73 L84.5,73 C90.841,73 96,67.841 96,61.5 L96,53.624 C99.471,52.553 102,49.317 102,45.5" id="Mask" fill="#3884FF"></path>
        </g>
    </g>
</svg>