<?xml version="1.0" encoding="UTF-8"?>
<svg width="120px" height="120px" viewBox="0 0 120 120" version="1.1" xmlns="http://www.w3.org/2000/svg" xmlns:xlink="http://www.w3.org/1999/xlink">
    <!-- Generator: Sketch 48.1 (47250) - http://www.bohemiancoding.com/sketch -->
    <title>illustration/hystory</title>
    <desc>Created with Sketch.</desc>
    <defs>
        <path d="M72.2676,69.5175 L62.9996,60.2495 L62.9996,40.2855 C62.9996,38.9045 61.8806,37.7855 60.4996,37.7855 C59.1196,37.7855 57.9996,38.9045 57.9996,40.2855 L57.9996,61.2855 C57.9996,61.4495 58.0176,61.6135 58.0486,61.7745 C58.0646,61.8495 58.0916,61.9185 58.1136,61.9915 C58.1386,62.0755 58.1576,62.1595 58.1916,62.2415 C58.2266,62.3275 58.2756,62.4055 58.3206,62.4865 C58.3546,62.5485 58.3806,62.6125 58.4196,62.6705 C58.5126,62.8095 58.6176,62.9385 58.7356,63.0555 L68.7326,73.0525 C69.2206,73.5405 69.8606,73.7855 70.4996,73.7855 C71.1396,73.7855 71.7796,73.5405 72.2676,73.0525 C73.2446,72.0765 73.2446,70.4935 72.2676,69.5175 M60.4996,31.7855 C44.7856,31.7855 31.9996,44.5705 31.9996,60.2855 C31.9996,75.9995 44.7856,88.7855 60.4996,88.7855 C76.2146,88.7855 88.9996,75.9995 88.9996,60.2855 C88.9996,44.5705 76.2146,31.7855 60.4996,31.7855 M60.4996,93.7855 C42.0286,93.7855 26.9996,78.7575 26.9996,60.2855 C26.9996,41.8125 42.0286,26.7855 60.4996,26.7855 C78.9716,26.7855 93.9996,41.8125 93.9996,60.2855 C93.9996,78.7575 78.9716,93.7855 60.4996,93.7855" id="path-1"></path>
    </defs>
    <g id="Symbols" stroke="none" stroke-width="1" fill="none" fill-rule="evenodd">
        <g id="illustration/hystory">
            <path d="M81.6563,95.9955 C82.3683,95.5745 83.2893,95.8065 83.7123,96.5195 C84.1353,97.2315 83.9003,98.1515 83.1873,98.5745 C82.5363,98.9615 81.8733,99.3325 81.2013,99.6865 C80.9783,99.8045 80.7393,99.8605 80.5033,99.8605 C79.9653,99.8605 79.4433,99.5685 79.1753,99.0585 C78.7893,98.3265 79.0693,97.4185 79.8023,97.0325 C80.4293,96.7025 81.0483,96.3565 81.6563,95.9955 Z M75.4531,46.2626 C76.0201,46.8666 75.9901,47.8156 75.3861,48.3826 C75.0961,48.6546 74.7271,48.7886 74.3591,48.7886 C73.9601,48.7886 73.5601,48.6296 73.2651,48.3146 C71.2741,46.1916 68.7701,44.5876 66.0241,43.6746 C65.2381,43.4126 64.8121,42.5636 65.0731,41.7776 C65.3351,40.9926 66.1841,40.5646 66.9701,40.8276 C70.1881,41.8976 73.1221,43.7766 75.4531,46.2626 Z M79.0977,51.6483 C79.4487,52.3993 79.1227,53.2923 78.3727,53.6423 C78.1677,53.7383 77.9517,53.7833 77.7397,53.7833 C77.1747,53.7833 76.6337,53.4633 76.3787,52.9183 C76.2337,52.6053 76.0787,52.2973 75.9157,51.9953 C75.5227,51.2663 75.7947,50.3563 76.5247,49.9623 C77.2517,49.5703 78.1617,49.8413 78.5567,50.5703 C78.7467,50.9243 78.9267,51.2833 79.0977,51.6483 Z M64.2217,15.9525 C87.0227,17.8515 104.9997,37.0015 104.9997,60.2855 C104.9997,64.5075 104.4097,68.6855 103.2437,72.7025 C103.0537,73.3585 102.4547,73.7855 101.8047,73.7855 C101.6657,73.7855 101.5257,73.7655 101.3857,73.7255 C100.5897,73.4945 100.1327,72.6625 100.3637,71.8675 C101.4497,68.1215 101.9997,64.2245 101.9997,60.2855 C101.9997,38.5855 85.2557,20.7345 64.0127,18.9445 L65.4007,20.4855 C65.9537,21.1005 65.9047,22.0495 65.2887,22.6035 C65.0017,22.8625 64.6437,22.9895 64.2857,22.9895 C63.8747,22.9895 63.4667,22.8215 63.1697,22.4925 L59.3847,18.2885 C59.3757,18.2795 59.3737,18.2665 59.3667,18.2565 C59.2507,18.1225 59.1597,17.9705 59.0967,17.8005 C59.0887,17.7785 59.0827,17.7575 59.0757,17.7345 C59.0317,17.5915 58.9997,17.4425 58.9997,17.2855 C58.9997,17.2665 59.0047,17.2485 59.0057,17.2305 C59.0057,17.2085 59.0097,17.1885 59.0117,17.1665 C59.0267,16.9895 59.0667,16.8205 59.1367,16.6655 C59.1437,16.6505 59.1537,16.6375 59.1597,16.6225 C59.2427,16.4585 59.3497,16.3125 59.4827,16.1895 C59.4887,16.1835 59.4907,16.1755 59.4957,16.1705 L63.7007,12.3855 C64.3167,11.8315 65.2637,11.8805 65.8197,12.4965 C66.3727,13.1115 66.3237,14.0605 65.7077,14.6145 L64.2217,15.9525 Z M100.6025,75.9076 C101.3635,76.2356 101.7135,77.1176 101.3865,77.8786 C98.3575,84.9086 93.5235,91.0816 87.4085,95.7316 C87.1365,95.9376 86.8175,96.0366 86.5005,96.0366 C86.0485,96.0366 85.6005,95.8326 85.3055,95.4446 C84.8045,94.7846 84.9325,93.8446 85.5915,93.3426 C91.2975,89.0056 95.8065,83.2476 98.6305,76.6916 C98.9585,75.9296 99.8415,75.5776 100.6025,75.9076 Z M72.7197,52.476 C73.1657,53.173 72.9627,54.101 72.2647,54.548 C72.0147,54.708 71.7347,54.785 71.4567,54.785 C70.9627,54.785 70.4797,54.54 70.1927,54.093 C69.1087,52.399 67.5927,51.012 65.8117,50.082 C65.0767,49.699 64.7927,48.792 65.1757,48.058 C65.5597,47.323 66.4667,47.039 67.1997,47.423 C69.4447,48.594 71.3527,50.342 72.7197,52.476 Z M74.6123,56.9423 C74.6983,57.3093 74.7713,57.6813 74.8293,58.0583 C74.9553,58.8773 74.3923,59.6423 73.5743,59.7683 C73.4973,59.7793 73.4203,59.7853 73.3443,59.7853 C72.6163,59.7853 71.9773,59.2543 71.8643,58.5123 C71.8183,58.2133 71.7603,57.9183 71.6923,57.6283 C71.5033,56.8213 72.0033,56.0143 72.8093,55.8243 C73.6183,55.6353 74.4243,56.1353 74.6123,56.9423 Z M25.3398,35.4789 C24.6808,34.9779 24.5528,34.0369 25.0538,33.3769 C27.7658,29.8119 30.9858,26.6819 34.6268,24.0759 C35.2998,23.5939 36.2368,23.7479 36.7198,24.4219 C37.2018,25.0959 37.0468,26.0329 36.3728,26.5149 C32.9768,28.9459 29.9718,31.8659 27.4428,35.1929 C27.1478,35.5809 26.6988,35.7849 26.2468,35.7849 C25.9308,35.7849 25.6108,35.6859 25.3398,35.4789 Z M39.501,24.2538 C38.977,24.2538 38.468,23.9778 38.192,23.4878 C37.786,22.7658 38.043,21.8518 38.766,21.4458 C39.108,21.2528 39.454,21.0648 39.804,20.8808 C40.535,20.4948 41.443,20.7768 41.829,21.5098 C42.215,22.2428 41.934,23.1498 41.2,23.5358 C40.876,23.7068 40.554,23.8818 40.234,24.0608 C40.003,24.1918 39.75,24.2538 39.501,24.2538 Z M61.9053,102.9908 C61.9113,103.0068 61.9153,103.0218 61.9203,103.0378 C61.9673,103.1838 62.0003,103.3378 62.0003,103.4998 C62.0003,103.5208 61.9943,103.5408 61.9943,103.5618 C61.9933,103.5758 61.9903,103.5898 61.9893,103.6038 C61.9763,103.7888 61.9333,103.9648 61.8593,104.1248 C61.8553,104.1348 61.8493,104.1428 61.8443,104.1518 C61.7613,104.3218 61.6503,104.4728 61.5123,104.5998 C61.5083,104.6038 61.5073,104.6098 61.5023,104.6148 L57.2983,108.3998 C57.0103,108.6578 56.6523,108.7848 56.2943,108.7848 C55.8843,108.7848 55.4753,108.6168 55.1783,108.2878 C54.6253,107.6728 54.6753,106.7238 55.2903,106.1698 L56.7763,104.8318 C33.9763,102.9318 16.0003,83.7818 16.0003,60.4998 C16.0003,52.4658 18.1643,44.5918 22.2593,37.7308 C22.6843,37.0188 23.6033,36.7888 24.3153,37.2118 C25.0273,37.6358 25.2593,38.5568 24.8353,39.2678 C21.0173,45.6648 19.0003,53.0068 19.0003,60.4998 C19.0003,82.1978 35.7423,100.0488 56.9843,101.8398 L55.5973,100.2998 C55.0433,99.6838 55.0933,98.7358 55.7083,98.1808 C56.3243,97.6288 57.2723,97.6768 57.8263,98.2918 L61.6113,102.4948 C61.6123,102.4958 61.6133,102.4958 61.6133,102.4958 C61.6193,102.5028 61.6213,102.5118 61.6273,102.5188 C61.7473,102.6578 61.8423,102.8158 61.9053,102.9908 Z" id="Mask" fill="#C2D9FF"></path>
            <mask id="mask-2" fill="white">
                <use xlink:href="#path-1"></use>
            </mask>
            <use id="Mask" fill="#3884FF" xlink:href="#path-1"></use>
        </g>
    </g>
</svg>