<?xml version="1.0" encoding="UTF-8"?>
<svg width="120px" height="120px" viewBox="0 0 120 120" version="1.1" xmlns="http://www.w3.org/2000/svg" xmlns:xlink="http://www.w3.org/1999/xlink">
    <!-- Generator: Sketch 48.1 (47250) - http://www.bohemiancoding.com/sketch -->
    <title>illustration/fastSearch</title>
    <desc>Created with Sketch.</desc>
    <defs>
        <path d="M81.5,79 C65.785,79 53,66.215 53,50.5 C53,34.785 65.785,22 81.5,22 C97.215,22 110,34.785 110,50.5 C110,66.215 97.215,79 81.5,79 M81.5,17 C63.028,17 48,32.028 48,50.5 C48,58.838 51.069,66.468 56.127,72.337 L36.732,91.732 C35.756,92.708 35.756,94.292 36.732,95.268 C37.22,95.756 37.86,96 38.5,96 C39.14,96 39.78,95.756 40.268,95.268 L59.663,75.873 C65.532,80.931 73.162,84 81.5,84 C99.972,84 115,68.972 115,50.5 C115,32.028 99.972,17 81.5,17" id="path-1"></path>
    </defs>
    <g id="Symbols" stroke="none" stroke-width="1" fill="none" fill-rule="evenodd">
        <g id="illustration/fastSearch">
            <path d="M23,66.5 C23,65.671 22.329,65 21.5,65 L15.5,65 C14.671,65 14,65.671 14,66.5 C14,67.329 14.671,68 15.5,68 L21.5,68 C22.329,68 23,67.329 23,66.5 Z M10,66.5 C10,65.671 9.329,65 8.5,65 L7.5,65 C6.671,65 6,65.671 6,66.5 C6,67.329 6.671,68 7.5,68 L8.5,68 C9.329,68 10,67.329 10,66.5 Z M95,66.5 C95,65.671 94.329,65 93.5,65 L67.5,65 C66.671,65 66,65.671 66,66.5 C66,67.329 66.671,68 67.5,68 L93.5,68 C94.329,68 95,67.329 95,66.5 Z M48,66.5 C48,65.671 47.329,65 46.5,65 L28.5,65 C27.671,65 27,65.671 27,66.5 C27,67.329 27.671,68 28.5,68 L46.5,68 C47.329,68 48,67.329 48,66.5 Z M18,55.5 C18,54.671 17.329,54 16.5,54 L15.5,54 C14.671,54 14,54.671 14,55.5 C14,56.329 14.671,57 15.5,57 L16.5,57 C17.329,57 18,56.329 18,55.5 Z M95,55.5 C95,54.671 94.329,54 93.5,54 L67.5,54 C66.671,54 66,54.671 66,55.5 C66,56.329 66.671,57 67.5,57 L93.5,57 C94.329,57 95,56.329 95,55.5 Z M43,55.5 C43,54.671 42.329,54 41.5,54 L23.5,54 C22.671,54 22,54.671 22,55.5 C22,56.329 22.671,57 23.5,57 L41.5,57 C42.329,57 43,56.329 43,55.5 Z M33,44.5 C33,43.671 32.329,43 31.5,43 L23.5,43 C22.671,43 22,43.671 22,44.5 C22,45.329 22.671,46 23.5,46 L31.5,46 C32.329,46 33,45.329 33,44.5 Z M43,44.5 C43,43.671 42.329,43 41.5,43 L38.5,43 C37.671,43 37,43.671 37,44.5 C37,45.329 37.671,46 38.5,46 L41.5,46 C42.329,46 43,45.329 43,44.5 Z M35,33.5 C35,32.671 34.329,32 33.5,32 L31.5,32 C30.671,32 30,32.671 30,33.5 C30,34.329 30.671,35 31.5,35 L33.5,35 C34.329,35 35,34.329 35,33.5 Z M72,41 L71,38 L70,41 L72,41 Z M75.0124891,45.9099691 C74.8425084,45.97099 74.669528,46 74.4995472,46 C73.8866166,46 73.3116817,45.6218701 73.0897068,45.0126609 L72.5397691,43.4991411 L68.4602309,43.4991411 L67.9102932,45.0126609 C67.6883183,45.6218701 67.1133834,46 66.5004528,46 C66.330472,46 66.1574916,45.97099 65.9875109,45.9099691 C65.2095989,45.6258715 64.8076444,44.765576 65.0906124,43.9863084 L69.0901596,32.9825291 C69.0981587,32.9625222 69.1101573,32.9455163 69.1181564,32.9255095 C69.1381542,32.877493 69.1611516,32.8304768 69.1861487,32.784461 C69.2091461,32.7424466 69.2321435,32.7014325 69.2581406,32.6614188 C69.2851375,32.621405 69.3141342,32.5843923 69.3451307,32.5483799 C69.3761272,32.5093665 69.4091235,32.4713535 69.4441195,32.4353411 C69.4761159,32.4033301 69.511112,32.3743202 69.546108,32.3453102 C69.5861035,32.3112985 69.6270988,32.2792875 69.6710938,32.2502776 C69.7070898,32.2262693 69.7440856,32.2052621 69.7820813,32.1842549 C69.8320756,32.1572456 69.8830698,32.132237 69.9370637,32.1102295 C69.9540618,32.1032271 69.9690601,32.0922233 69.9870581,32.0852209 C70.0090556,32.0782185 70.0300532,32.0762178 70.0520507,32.0692154 C70.1060446,32.0522095 70.1620383,32.0372044 70.2180319,32.0272009 C70.2620269,32.0181979 70.3050221,32.0121958 70.3480172,32.0071941 C70.3990114,32.0021924 70.4500057,31.9991913 70.5019998,32.0001917 C70.5509942,32.0001917 70.5999887,32.0021924 70.6479832,32.0071941 C70.693978,32.0121958 70.7389729,32.0181979 70.7849677,32.0272009 C70.8389616,32.0382047 70.8929555,32.0522095 70.9459495,32.068215 C70.967947,32.0752174 70.9909444,32.0772181 71.0129419,32.0852209 C71.0309399,32.0922233 71.0469381,32.1032271 71.064936,32.1112298 C71.1169302,32.132237 71.1669245,32.1572456 71.2169188,32.1832545 C71.2549145,32.2052621 71.2929102,32.2262693 71.329906,32.2502776 C71.3729012,32.2792875 71.4128967,32.3112985 71.4528921,32.3443099 C71.488888,32.3733198 71.5238841,32.4033301 71.5568804,32.4353411 C71.5918764,32.4713535 71.6238728,32.5093665 71.6548693,32.5473796 C71.6858658,32.5843923 71.7148625,32.621405 71.7418594,32.6614188 C71.7678565,32.7014325 71.7908539,32.7424466 71.8138513,32.784461 C71.8388484,32.8304768 71.8618458,32.877493 71.8818436,32.9265098 C71.8908425,32.9455163 71.9018413,32.9625222 71.9098404,32.9825291 L75.9093876,43.9863084 C76.1923556,44.765576 75.7904011,45.6258715 75.0124891,45.9099691 Z M95,44.5 C95,43.671 94.329,43 93.5,43 L80.5,43 C79.671,43 79,43.671 79,44.5 C79,45.329 79.671,46 80.5,46 L93.5,46 C94.329,46 95,45.329 95,44.5 Z M95,33.5 C95,32.671 94.329,32 93.5,32 L77.5,32 C76.671,32 76,32.671 76,33.5 C76,34.329 76.671,35 77.5,35 L93.5,35 C94.329,35 95,34.329 95,33.5 Z M46.5,35 L40.5,35 C39.671,35 39,34.329 39,33.5 C39,32.671 39.671,32 40.5,32 L46.5,32 C47.329,32 48,32.671 48,33.5 C48,34.329 47.329,35 46.5,35 Z" id="Mask" fill="#C2D9FF"></path>
            <mask id="mask-2" fill="white">
                <use xlink:href="#path-1"></use>
            </mask>
            <use id="Mask" fill="#3884FF" xlink:href="#path-1"></use>
        </g>
    </g>
</svg>