<?xml version="1.0" encoding="UTF-8"?>
<svg width="120px" height="120px" viewBox="0 0 120 120" version="1.1" xmlns="http://www.w3.org/2000/svg" xmlns:xlink="http://www.w3.org/1999/xlink">
    <!-- Generator: Sketch 48.1 (47250) - http://www.bohemiancoding.com/sketch -->
    <title>illustration/cloud</title>
    <desc>Created with Sketch.</desc>
    <defs></defs>
    <g id="Symbols" stroke="none" stroke-width="1" fill="none" fill-rule="evenodd">
        <g id="illustration/cloud">
            <path d="M47.4492,36.5 L46.5002,33.889 L45.5512,36.5 L47.4492,36.5 Z M51.0122,41.91 C50.8432,41.971 50.6702,42 50.5002,42 C49.8872,42 49.3122,41.622 49.0902,41.013 L48.5402,39.5 L44.4602,39.5 L43.9092,41.013 C43.6882,41.622 43.1132,42 42.5002,42 C42.3292,42 42.1572,41.971 41.9872,41.91 C41.2092,41.626 40.8072,40.766 41.0902,39.987 L45.0902,28.987 C45.0972,28.967 45.1102,28.95 45.1172,28.93 C45.1372,28.882 45.1612,28.835 45.1862,28.789 C45.2092,28.747 45.2322,28.706 45.2582,28.666 C45.2842,28.626 45.3142,28.589 45.3452,28.552 C45.3762,28.514 45.4082,28.476 45.4442,28.44 C45.4762,28.408 45.5112,28.378 45.5472,28.349 C45.5872,28.316 45.6272,28.284 45.6702,28.256 C45.7062,28.231 45.7442,28.21 45.7842,28.188 C45.8332,28.162 45.8822,28.137 45.9332,28.116 C45.9522,28.108 45.9682,28.097 45.9872,28.09 C46.0102,28.082 46.0322,28.08 46.0542,28.073 C46.1082,28.057 46.1612,28.043 46.2172,28.032 C46.2612,28.023 46.3042,28.017 46.3492,28.012 C46.3992,28.007 46.4502,28.005 46.5012,28.005 C46.5512,28.005 46.5992,28.007 46.6472,28.012 C46.6942,28.017 46.7402,28.024 46.7862,28.033 C46.8392,28.043 46.8902,28.057 46.9422,28.072 C46.9662,28.08 46.9892,28.082 47.0122,28.09 C47.0322,28.098 47.0492,28.109 47.0682,28.117 C47.1182,28.138 47.1652,28.161 47.2122,28.187 C47.2532,28.209 47.2942,28.231 47.3322,28.257 C47.3732,28.285 47.4112,28.315 47.4492,28.346 C47.4872,28.377 47.5242,28.408 47.5582,28.442 C47.5922,28.476 47.6222,28.513 47.6532,28.55 C47.6842,28.588 47.7152,28.626 47.7422,28.667 C47.7682,28.706 47.7912,28.747 47.8132,28.788 C47.8392,28.834 47.8622,28.882 47.8822,28.931 C47.8902,28.95 47.9022,28.967 47.9092,28.987 L51.9092,39.987 C52.1932,40.766 51.7912,41.626 51.0122,41.91 Z M76.0002,40.5 C76.0002,39.671 75.3282,39 74.5002,39 L56.5002,39 C55.6712,39 55.0002,39.671 55.0002,40.5 C55.0002,41.329 55.6712,42 56.5002,42 L74.5002,42 C75.3282,42 76.0002,41.329 76.0002,40.5 Z M76.0002,29.5 C76.0002,28.671 75.3282,28 74.5002,28 L53.5002,28 C52.6712,28 52.0002,28.671 52.0002,29.5 C52.0002,30.329 52.6712,31 53.5002,31 L74.5002,31 C75.3282,31 76.0002,30.329 76.0002,29.5 Z M89.5002,75 C88.1192,75 87.0002,73.881 87.0002,72.5 L87.0002,18.5 C87.0002,18.224 86.7762,18 86.5002,18 L32.5002,18 C32.2242,18 32.0002,18.224 32.0002,18.5 L32.0002,58.5 C32.0002,59.881 30.8812,61 29.5002,61 C28.1192,61 27.0002,63.881 27.0002,62.5 L27.0002,18.5 C27.0002,15.467 29.4672,13 32.5002,13 L86.5002,13 C89.5322,13 92.0002,15.467 92.0002,18.5 L92.0002,72.5 C92.0002,73.881 90.8812,75 89.5002,75 Z" id="Mask" fill="#3884FF"></path>
            <path d="M102,74.2158 L102,25.4998 C102,24.6718 101.329,23.9998 100.5,23.9998 C99.671,23.9998 99,24.6718 99,25.4998 L99,72.8988 C98.348,72.6818 97.684,72.4918 97,72.3528 L97,21.4998 C97,20.6718 96.329,19.9998 95.5,19.9998 C94.671,19.9998 94,20.6718 94,21.4998 L94,72.0258 C93.833,72.0208 93.669,71.9998 93.5,71.9998 C91.87,71.9998 90.271,72.2328 88.731,72.6678 C87.389,65.4408 81.012,59.9998 73.5,59.9998 C71.417,59.9998 69.411,60.4258 67.514,61.2228 C66.945,60.2938 66.327,59.3918 65.628,58.5448 C65.101,57.9058 64.155,57.8158 63.517,58.3428 C62.878,58.8708 62.788,59.8168 63.315,60.4548 C66.336,64.1138 68,68.7458 68,73.4998 C68,74.3288 68.671,74.9998 69.5,74.9998 C70.329,74.9998 71,74.3288 71,73.4998 C71,70.1658 70.278,66.8868 68.931,63.8798 C70.383,63.3068 71.913,62.9998 73.5,62.9998 C79.743,62.9998 85.009,67.6588 85.866,73.7508 C85.104,74.1208 84.364,74.5468 83.655,75.0298 C82.971,75.4968 82.794,76.4298 83.261,77.1138 C83.727,77.7998 84.662,77.9758 85.345,77.5088 C87.753,75.8678 90.573,74.9998 93.5,74.9998 C101.495,74.9998 108,81.5048 108,89.4998 C108,97.4948 101.495,103.9998 93.5,103.9998 C92.671,103.9998 92,104.6718 92,105.4998 C92,106.3288 92.671,106.9998 93.5,106.9998 C103.149,106.9998 111,99.1498 111,89.4998 C111,82.9348 107.362,77.2098 102,74.2158 M34,105.4998 C34,104.6718 33.329,103.9998 32.5,103.9998 L26.5,103.9998 C25.671,103.9998 25,104.6718 25,105.4998 C25,106.3288 25.671,106.9998 26.5,106.9998 L32.5,106.9998 C33.329,106.9998 34,106.3288 34,105.4998 M42,105.4998 C42,104.6718 41.329,103.9998 40.5,103.9998 L39.5,103.9998 C38.671,103.9998 38,104.6718 38,105.4998 C38,106.3288 38.671,106.9998 39.5,106.9998 L40.5,106.9998 C41.329,106.9998 42,106.3288 42,105.4998 M88,105.4998 C88,104.6718 87.329,103.9998 86.5,103.9998 L47.5,103.9998 C46.671,103.9998 46,104.6718 46,105.4998 C46,106.3288 46.671,106.9998 47.5,106.9998 L86.5,106.9998 C87.329,106.9998 88,106.3288 88,105.4998 M56.049,51.6038 C53.325,50.5398 50.449,49.9998 47.5,49.9998 C34.925,49.9998 24.627,59.9278 24.029,72.3578 C15.948,73.9838 10,81.1288 10,89.4998 C10,90.3288 10.671,90.9998 11.5,90.9998 C12.329,90.9998 13,90.3288 13,89.4998 C13,82.7488 17.667,76.9608 24.088,75.4128 C24.271,77.6928 24.771,79.9188 25.604,82.0498 C25.836,82.6428 26.402,83.0048 27.002,83.0048 C27.184,83.0048 27.368,82.9718 27.547,82.9018 C28.319,82.5998 28.7,81.7298 28.398,80.9588 C27.471,78.5838 27,76.0738 27,73.4998 C27,62.1958 36.196,52.9998 47.5,52.9998 C50.074,52.9998 52.583,53.4698 54.957,54.3978 C55.729,54.7018 56.598,54.3188 56.9,53.5468 C57.202,52.7758 56.82,51.9048 56.049,51.6038 M61.711,56.6338 C62.2,55.9648 62.053,55.0268 61.384,54.5378 L61.014,54.2718 C60.336,53.7958 59.401,53.9578 58.924,54.6348 C58.447,55.3128 58.609,56.2478 59.287,56.7248 L59.615,56.9608 C59.882,57.1558 60.191,57.2498 60.499,57.2498 C60.961,57.2498 61.417,57.0358 61.711,56.6338 M30.531,89.0018 C30.099,89.0018 29.669,88.8158 29.373,88.4558 C29.084,88.1068 28.806,87.7488 28.537,87.3828 C28.048,86.7148 28.193,85.7758 28.861,85.2858 C29.53,84.7978 30.468,84.9428 30.958,85.6108 C31.192,85.9298 31.435,86.2418 31.687,86.5468 C32.214,87.1858 32.124,88.1308 31.484,88.6578 C31.205,88.8888 30.867,89.0018 30.531,89.0018" id="Mask" fill="#C2D9FF"></path>
        </g>
    </g>
</svg>