<?xml version="1.0" encoding="utf-8"?>
<!-- Generator: Adobe Illustrator 22.1.0, SVG Export Plug-In . SVG Version: 6.00 Build 0)  -->
<svg version="1.1" id="Calque_1" xmlns="http://www.w3.org/2000/svg" xmlns:xlink="http://www.w3.org/1999/xlink" x="0px" y="0px"
	 viewBox="0 0 120 120" style="enable-background:new 0 0 120 120;" xml:space="preserve">
<style type="text/css">
	.st0{fill:#C2D9FF;}
	.st1{fill:#3884FF;}
</style>
<title>illustration/private</title>
<desc>Created with Sketch.</desc>
<g id="Symbols">
	<g id="illustration_x2F_private">
		<path id="Mask" class="st0" d="M26.5,12c-0.8,0-1.5,0.7-1.5,1.5v51c0,0.8,0.7,1.5,1.5,1.5h46c0.8,0,1.5-0.7,1.5-1.5v-51
			c0-0.8-0.7-1.5-1.5-1.5H26.5z M72.5,69h-46C24,69,22,67,22,64.5v-51C22,11,24,9,26.5,9h46C75,9,77,11,77,13.5v51
			C77,67,75,69,72.5,69z M78,98.5c0,0.3-0.2,0.5-0.5,0.5S77,98.8,77,98.5V94c0.2,0,0.3,0,0.5,0s0.3,0,0.5,0V98.5z M77.5,86
			c1.4,0,2.5,1.1,2.5,2.5c0,0.7-0.3,1.4-0.8,1.9c-0.5,0.4-1,0.6-1.7,0.6c-1.4,0-2.5-1.1-2.5-2.5S76.1,86,77.5,86z M77.5,83
			c-3,0-5.5,2.5-5.5,5.5c0,1.7,0.8,3.2,2,4.2v5.8c0,0.1,0,0.2,0,0.3c0.2,1.8,1.6,3.2,3.5,3.2s3.3-1.4,3.5-3.2c0-0.1,0-0.2,0-0.3
			v-5.8c0,0,0.1-0.1,0.1-0.1c1.2-1,1.9-2.5,1.9-4.1C83,85.5,80.5,83,77.5,83z"/>
		<g id="Mask_1_">
			<path id="path-1_1_" class="st1" d="M93.5,80.1c0-0.6-0.5-1.1-1.1-1.1H63.6c-0.6,0-1.1,0.5-1.1,1.1v25.8c0,0.6,0.5,1.1,1.1,1.1
				h28.8c0.6,0,1.1-0.5,1.1-1.1V80.1z M98.5,80.1v25.8c0,3.4-2.7,6.1-6.1,6.1H63.6c-3.4,0-6.1-2.7-6.1-6.1V80.1
				c0-3.4,2.7-6.1,6.1-6.1h2.1v-5h5v5h14.7v-8.7c0-4-3.3-7.3-7.3-7.3c-0.2,0-0.3,0-0.5,0c-1.1,0.1-2.1,0.4-3,0.9
				c-0.9,0.5-1.7,1.2-2.4,2.1c-0.8,1.1-2.4,1.3-3.5,0.5c-1.1-0.8-1.3-2.4-0.5-3.5c1.6-2.2,3.9-3.7,6.4-4.5c1-0.3,2-0.5,3-0.5
				c0.2,0,0.3,0,0.5,0c6.8,0,12.3,5.5,12.3,12.3V74h2.1C95.8,74,98.5,76.7,98.5,80.1z M64,54.5c0-0.8-0.7-1.5-1.5-1.5h-26
				c-0.8,0-1.5,0.7-1.5,1.5c0,0.8,0.7,1.5,1.5,1.5h26C63.3,56,64,55.3,64,54.5z M64,43.5c0-0.8-0.7-1.5-1.5-1.5h-26
				c-0.8,0-1.5,0.7-1.5,1.5c0,0.8,0.7,1.5,1.5,1.5h26C63.3,45,64,44.3,64,43.5z M40.4,28.5l-0.9-2.6l-0.9,2.6H40.4z M44,33.9
				C43.8,34,43.7,34,43.5,34c-0.6,0-1.2-0.4-1.4-1l-0.5-1.5h-4.1L36.9,33c-0.2,0.6-0.8,1-1.4,1c-0.2,0-0.3,0-0.5-0.1
				c-0.8-0.3-1.2-1.1-0.9-1.9l4-11c0,0,0,0,0-0.1c0,0,0-0.1,0.1-0.1c0,0,0-0.1,0.1-0.1c0,0,0.1-0.1,0.1-0.1c0,0,0.1-0.1,0.1-0.1
				c0,0,0.1-0.1,0.1-0.1c0,0,0.1-0.1,0.1-0.1c0,0,0.1-0.1,0.1-0.1c0,0,0.1,0,0.1-0.1c0,0,0,0,0.1,0c0,0,0.1,0,0.1,0c0,0,0.1,0,0.1,0
				c0.1,0,0.1,0,0.2,0c0,0,0.1,0,0.1,0c0.1,0,0.1,0,0.2,0c0,0,0.1,0,0.1,0c0.1,0,0.1,0,0.2,0c0,0,0,0,0.1,0c0,0,0,0,0.1,0
				c0.1,0,0.1,0,0.2,0.1c0,0,0.1,0,0.1,0.1c0,0,0.1,0.1,0.1,0.1c0,0,0.1,0.1,0.1,0.1c0,0,0.1,0.1,0.1,0.1c0,0,0.1,0.1,0.1,0.1
				c0,0,0.1,0.1,0.1,0.1c0,0,0,0.1,0.1,0.1c0,0,0,0,0,0.1l4,11C45.2,32.8,44.8,33.6,44,33.9z M64,32.5c0-0.8-0.7-1.5-1.5-1.5h-13
				c-0.8,0-1.5,0.7-1.5,1.5c0,0.8,0.7,1.5,1.5,1.5h13C63.3,34,64,33.3,64,32.5z M62.5,23h-16c-0.8,0-1.5-0.7-1.5-1.5
				c0-0.8,0.7-1.5,1.5-1.5h16c0.8,0,1.5,0.7,1.5,1.5C64,22.3,63.3,23,62.5,23z"/>
		</g>
	</g>
</g>
</svg>
