<?xml version="1.0" encoding="UTF-8"?>
<svg width="70px" height="70px" viewBox="0 0 70 70" version="1.1" xmlns="http://www.w3.org/2000/svg" xmlns:xlink="http://www.w3.org/1999/xlink">
    <!-- Generator: Sketch 48.1 (47250) - http://www.bohemiancoding.com/sketch -->
    <title>logo/api</title>
    <desc>Created with Sketch.</desc>
    <defs>
        <path d="M61.25,0 L8.75,0 C3.91753906,0 0,3.91753906 0,8.75 L0,61.25 C0,66.0821875 3.91753906,70 8.75,70 L61.25,70 C66.0824609,70 70,66.0821875 70,61.25 L70,8.75 C70,3.91753906 66.0824609,0 61.25,0 Z" id="path-1"></path>
    </defs>
    <g id="Homepage-desktop" stroke="none" stroke-width="1" fill="none" fill-rule="evenodd" transform="translate(-1043.000000, -3708.000000)">
        <g id="illustration/api" transform="translate(1043.000000, 3708.000000)">
            <mask id="mask-2" fill="white">
                <use xlink:href="#path-1"></use>
            </mask>
            <use id="Mask" fill="#E6EDF1" fill-rule="evenodd" xlink:href="#path-1"></use>
            <path d="M28.875,53.0833333 L25.375,53.0833333 C21.0326667,53.0833333 17.5,49.5506667 17.5,45.2083333 C17.5,44.72475 17.1085833,44.3333333 16.625,44.3333333 C16.1414167,44.3333333 15.75,44.72475 15.75,45.2083333 C15.75,50.5155 20.0678333,54.8333333 25.375,54.8333333 L28.875,54.8333333 C29.3585833,54.8333333 29.75,54.4419167 29.75,53.9583333 C29.75,53.47475 29.3585833,53.0833333 28.875,53.0833333 M45.2083333,15.75 L41.7083333,15.75 C41.22475,15.75 40.8333333,16.1414167 40.8333333,16.625 C40.8333333,17.1085833 41.22475,17.5 41.7083333,17.5 L45.2083333,17.5 C49.5506667,17.5 53.0833333,21.0326667 53.0833333,25.375 C53.0833333,25.8585833 53.47475,26.25 53.9583333,26.25 C54.4419167,26.25 54.8333333,25.8585833 54.8333333,25.375 C54.8333333,20.0678333 50.5155,15.75 45.2083333,15.75 M20.7083333,19.5416667 C20.0643333,19.5416667 19.5416667,20.0643333 19.5416667,20.7083333 C19.5416667,21.3523333 20.0643333,21.875 20.7083333,21.875 C21.3523333,21.875 21.875,21.3523333 21.875,20.7083333 C21.875,20.0643333 21.3523333,19.5416667 20.7083333,19.5416667 M49.875,48.7083333 C49.231,48.7083333 48.7083333,49.231 48.7083333,49.875 C48.7083333,50.519 49.231,51.0416667 49.875,51.0416667 C50.519,51.0416667 51.0416667,50.519 51.0416667,49.875 C51.0416667,49.231 50.519,48.7083333 49.875,48.7083333 M17.5,42.2916667 L17.5,41.7083333 C17.5,41.22475 17.1085833,40.8333333 16.625,40.8333333 C16.1414167,40.8333333 15.75,41.22475 15.75,41.7083333 L15.75,42.2916667 C15.75,42.77525 16.1414167,43.1666667 16.625,43.1666667 C17.1085833,43.1666667 17.5,42.77525 17.5,42.2916667 M53.9583333,29.75 C53.47475,29.75 53.0833333,29.3585833 53.0833333,28.875 L53.0833333,28.2916667 C53.0833333,27.8080833 53.47475,27.4166667 53.9583333,27.4166667 C54.4419167,27.4166667 54.8333333,27.8080833 54.8333333,28.2916667 L54.8333333,28.875 C54.8333333,29.3585833 54.4419167,29.75 53.9583333,29.75" id="Mask" fill="#FAFCFC" fill-rule="evenodd" mask="url(#mask-2)"></path>
            <path d="M16.9166667,20.7083333 C16.9166667,18.6176667 18.6176667,16.9166667 20.7083333,16.9166667 C22.799,16.9166667 24.5,18.6176667 24.5,20.7083333 C24.5,22.799 22.799,24.5 20.7083333,24.5 C18.6176667,24.5 16.9166667,22.799 16.9166667,20.7083333 M37.625,48.4166667 L26.5416667,48.4166667 C26.4419167,48.4166667 26.3445,48.4271667 26.25,48.4458333 C26.1555,48.4271667 26.0580833,48.4166667 25.9583333,48.4166667 C23.8676667,48.4166667 22.1666667,46.7156667 22.1666667,44.625 L22.1666667,27.2521667 C25.1661667,26.58425 27.4166667,23.9061667 27.4166667,20.7083333 C27.4166667,17.0094167 24.40725,14 20.7083333,14 C17.0094167,14 14,17.0094167 14,20.7083333 C14,23.9061667 16.2505,26.58425 19.25,27.2521667 L19.25,44.625 C19.25,48.3239167 22.2594167,51.3333333 25.9583333,51.3333333 C26.0580833,51.3333333 26.1555,51.3228333 26.25,51.3041667 C26.3445,51.3228333 26.4419167,51.3333333 26.5416667,51.3333333 L37.625,51.3333333 C38.4305833,51.3333333 39.0833333,50.6805833 39.0833333,49.875 C39.0833333,49.0694167 38.4305833,48.4166667 37.625,48.4166667 M49.875,53.6666667 C47.7843333,53.6666667 46.0833333,51.9656667 46.0833333,49.875 C46.0833333,47.7843333 47.7843333,46.0833333 49.875,46.0833333 C51.9656667,46.0833333 53.6666667,47.7843333 53.6666667,49.875 C53.6666667,51.9656667 51.9656667,53.6666667 49.875,53.6666667 M51.3333333,43.3311667 L51.3333333,25.9583333 C51.3333333,22.2594167 48.3239167,19.25 44.625,19.25 C44.52525,19.25 44.4278333,19.2605 44.3333333,19.2791667 C44.2388333,19.2605 44.1414167,19.25 44.0416667,19.25 L32.9583333,19.25 C32.15275,19.25 31.5,19.90275 31.5,20.7083333 C31.5,21.5139167 32.15275,22.1666667 32.9583333,22.1666667 L44.0416667,22.1666667 C44.1414167,22.1666667 44.2388333,22.1561667 44.3333333,22.1375 C44.4278333,22.1561667 44.52525,22.1666667 44.625,22.1666667 C46.7156667,22.1666667 48.4166667,23.8676667 48.4166667,25.9583333 L48.4166667,43.3311667 C45.4171667,43.9990833 43.1666667,46.6771667 43.1666667,49.875 C43.1666667,53.5739167 46.1760833,56.5833333 49.875,56.5833333 C53.5739167,56.5833333 56.5833333,53.5739167 56.5833333,49.875 C56.5833333,46.6771667 54.3328333,43.9990833 51.3333333,43.3311667" id="Mask" fill="#D2DCE1" fill-rule="evenodd" mask="url(#mask-2)"></path>
        </g>
    </g>
</svg>