<?xml version="1.0" encoding="UTF-8"?>
<svg width="70px" height="70px" viewBox="0 0 70 70" version="1.1" xmlns="http://www.w3.org/2000/svg" xmlns:xlink="http://www.w3.org/1999/xlink">
    <!-- Generator: Sketch 48.2 (47327) - http://www.bohemiancoding.com/sketch -->
    <title>logo/github</title>
    <desc>Created with Sketch.</desc>
    <defs>
        <polygon id="path-1" points="0 0 70 0 70 70 0 70"></polygon>
    </defs>
    <g id="Homepage-desktop" stroke="none" stroke-width="1" fill="none" fill-rule="evenodd" transform="translate(-786.000000, -3776.000000)">
        <g id="logo/integration/github" transform="translate(786.000000, 3776.000000)">
            <g id="Page-1">
                <mask id="mask-2" fill="white">
                    <use xlink:href="#path-1"></use>
                </mask>
                <g id="Clip-2"></g>
                <path d="M34.9978514,0 C15.6715777,0 0,16.0664718 0,35.8890568 C0,51.7418377 10.0273174,65.1911466 23.937078,69.9386094 C25.6881522,70.2668563 26.3262738,69.1587478 26.3262738,68.2070522 C26.3262738,67.3566946 26.296194,65.0986206 26.2790055,62.104745 C16.543892,64.272496 14.4898711,57.2933952 14.4898711,57.2933952 C12.8977901,53.147351 10.6031308,52.0458515 10.6031308,52.0458515 C7.42541436,49.8186195 10.8437692,49.8626795 10.8437692,49.8626795 C14.3566605,50.1182274 16.2044199,53.5615148 16.2044199,53.5615148 C19.3262738,59.0447794 24.3947207,57.4608231 26.3907305,56.5443755 C26.708717,54.2246175 27.6111111,52.6428643 28.6123389,51.7462437 C20.8410068,50.8408111 12.670043,47.7610185 12.670043,34.0098987 C12.670043,30.0929664 14.0343769,26.8898059 16.2731737,24.38059 C15.9122161,23.4729544 14.7111725,19.8247881 16.6147944,14.8834613 C16.6147944,14.8834613 19.5540209,13.9185477 26.2403315,18.5624696 C29.0313076,17.764984 32.0263966,17.3684442 35.0021486,17.3530232 C37.9736034,17.3684442 40.9686924,17.764984 43.7639656,18.5624696 C50.4459791,13.9185477 53.37876,14.8834613 53.37876,14.8834613 C55.2888275,19.8247881 54.0877839,23.4729544 53.7268263,24.38059 C55.9699202,26.8898059 57.3256599,30.0929664 57.3256599,34.0098987 C57.3256599,47.7962664 49.1418048,50.8297961 41.34469,51.7176047 C42.6015961,52.8257132 43.7209945,55.0154942 43.7209945,58.3640527 C43.7209945,63.1599815 43.6780233,67.0306508 43.6780233,68.2070522 C43.6780233,69.1675598 44.3075506,70.2844803 46.0844076,69.9342034 C59.9791283,65.1779286 70,51.7374317 70,35.8890568 C70,16.0664718 54.3284223,0 34.9978514,0" id="Fill-1" fill="#181717" mask="url(#mask-2)"></path>
            </g>
        </g>
    </g>
</svg>