<?xml version="1.0" encoding="UTF-8"?>
<svg width="70px" height="70px" viewBox="0 0 70 70" version="1.1" xmlns="http://www.w3.org/2000/svg" xmlns:xlink="http://www.w3.org/1999/xlink">
    <!-- Generator: Sketch 48.1 (47250) - http://www.bohemiancoding.com/sketch -->
    <title>logo/googleAnalytics</title>
    <desc>Created with Sketch.</desc>
    <defs>
        <linearGradient x1="0%" y1="50%" x2="100%" y2="50%" id="linearGradient-1">
            <stop stop-color="#FFFFFF" stop-opacity="0.1" offset="0%"></stop>
            <stop stop-color="#FFFFFF" stop-opacity="0" offset="100%"></stop>
        </linearGradient>
        <linearGradient x1="-49.6146435%" y1="25.2403846%" x2="93.1791908%" y2="96.5%" id="linearGradient-2">
            <stop stop-color="#BF360C" stop-opacity="0.2" offset="0%"></stop>
            <stop stop-color="#BF360C" stop-opacity="0.02" offset="100%"></stop>
        </linearGradient>
        <linearGradient x1="33.5322368%" y1="33.5730263%" x2="98.2203947%" y2="98.2611842%" id="linearGradient-3">
            <stop stop-color="#FFFFFF" stop-opacity="0.1" offset="0%"></stop>
            <stop stop-color="#FFFFFF" stop-opacity="0" offset="100%"></stop>
        </linearGradient>
    </defs>
    <g id="Homepage-desktop" stroke="none" stroke-width="1" fill="none" fill-rule="evenodd" transform="translate(-1044.000000, -3465.000000)">
        <g id="logo/integration/googleAnalytics" transform="translate(1044.000000, 3465.000000)">
            <g id="google-analytics-3">
                <path d="M64.3392505,0 L51.5910585,0 C48.5075608,0 45.9763314,2.53289474 45.9763314,5.61842105 L45.9763314,22.1052632 L27.5213675,22.1052632 C24.5299145,22.1052632 22.0907298,24.5460526 22.0907298,27.5855263 L22.0907298,46.0526316 L5.47666009,46.0526316 C2.43918475,46.0526316 0,48.4934211 0,51.5328947 L0,64.4276316 C0,67.4671053 2.43918475,69.9078947 5.47666009,70 L64.3852728,70 C67.4687705,70 70,67.4671053 70,64.3815789 L70,5.61842105 C69.9539776,2.53289474 67.4227482,0 64.3392505,0 Z" id="Shape" fill="url(#linearGradient-1)" fill-rule="nonzero"></path>
                <path d="M64.3392505,0 L51.5910585,0 C48.5075608,0 45.9763314,2.53289474 45.9763314,5.61842105 L45.9763314,22.1052632 L27.5213675,22.1052632 C24.5299145,22.1052632 22.0907298,24.5460526 22.0907298,27.5855263 L22.0907298,46.0526316 L5.47666009,46.0526316 C2.43918475,46.0526316 0,48.4934211 0,51.5328947 L0,64.4276316 C0,67.4671053 2.43918475,69.9078947 5.47666009,70 L64.3852728,70 C67.4687705,70 70,67.4671053 70,64.3815789 L70,5.61842105 C69.9539776,2.53289474 67.4227482,0 64.3392505,0 Z" id="Shape" fill="url(#linearGradient-1)" fill-rule="nonzero"></path>
                <g id="Group" fill-rule="nonzero">
                    <path d="M64.3815789,0 L51.7171053,0 C48.6315789,0 46.0986842,2.53289474 46.0986842,5.61842105 L46.0986842,70 L64.3815789,70 C67.4671053,70 70,67.4671053 70,64.3815789 L70,5.61842105 C70,2.53289474 67.4671053,0 64.3815789,0 Z" id="Shape" fill="#F57C00"></path>
                    <path d="M22.1052632,27.6315789 L22.1052632,46.0526316 L5.52631579,46.0526316 C2.48684211,46.0526316 0,48.5394737 0,51.5789474 L0,64.4736842 C0,67.5131579 2.48684211,70 5.52631579,70 L46.0526316,70 L46.0526316,22.1052632 L27.6315789,22.1052632 C24.5921053,22.1052632 22.1052632,24.5921053 22.1052632,27.6315789 Z" id="Shape" fill="#FFC107"></path>
                </g>
                <path d="M45.5813953,22.7906977 L45.5813953,70 L64.2599812,70 C67.4122866,70 70,67.5033542 70,64.4619857 L70,46.3953488 L45.5813953,22.7906977 Z" id="Shape" fill="url(#linearGradient-2)" fill-rule="nonzero"></path>
                <path d="M26.7978533,23.2915921 L45.5813953,23.2915921 L45.5813953,22.7906977 L26.7978533,22.7906977 C23.6985689,22.7906977 21.1627907,25.4955277 21.1627907,28.8014311 L21.1627907,29.3023256 C21.1627907,25.9964222 23.6985689,23.2915921 26.7978533,23.2915921 Z" id="Shape" fill="#FFFFFF" fill-rule="nonzero" opacity="0.2"></path>
                <path d="M5.29069767,46.0822898 L21.1627907,46.0822898 L21.1627907,45.5813953 L5.29069767,45.5813953 C2.38081395,45.5813953 0,48.2862254 0,51.5921288 L0,52.0930233 C0,48.7871199 2.38081395,46.0822898 5.29069767,46.0822898 Z" id="Shape" fill="#FFFFFF" fill-rule="nonzero" opacity="0.2"></path>
                <path d="M64.2599812,0 L51.3214142,0 C48.1691088,0 45.5813953,2.71317829 45.5813953,6.01832276 L45.5813953,6.51162791 C45.5813953,3.20648344 48.1691088,0.493305144 51.3214142,0.493305144 L64.2599812,0.493305144 C67.4122866,0.493305144 70,3.20648344 70,6.51162791 L70,6.01832276 C70,2.71317829 67.4122866,0 64.2599812,0 Z" id="Shape" fill="#FFFFFF" fill-rule="nonzero" opacity="0.2"></path>
                <path d="M64.4233938,69.5066949 L5.52990505,69.5066949 C2.48845727,69.5066949 0,66.8428471 0,63.5870331 L0,64.0803383 C0,67.3361522 2.48845727,70 5.52990505,70 L64.3773112,70 C67.4648416,70 69.9993814,67.2868217 69.9993814,63.9816772 L70,63.4883721 C70.0454639,66.7935166 67.5109241,69.5066949 64.4233938,69.5066949 Z" id="Shape" fill="#BF360C" fill-rule="nonzero" opacity="0.2"></path>
                <path d="M64.3815789,0 L51.7171053,0 C48.6315789,0 46.0986842,2.53289474 46.0986842,5.61842105 L46.0986842,22.1052632 L27.6776316,22.1052632 C24.6381579,22.1052632 22.1513158,24.5921053 22.1513158,27.6315789 L22.1513158,46.0526316 L5.52631579,46.0526316 C2.48684211,46.0526316 0,48.5394737 0,51.5789474 L0,64.4736842 C0,67.5131579 2.48684211,70 5.52631579,70 L64.3815789,70 C67.4671053,70 70,67.4671053 70,64.3815789 L70,5.61842105 C70,2.53289474 67.4671053,0 64.3815789,0 Z" id="Shape" fill="url(#linearGradient-3)" fill-rule="nonzero"></path>
            </g>
        </g>
    </g>
</svg>