<?xml version="1.0" encoding="UTF-8"?>
<svg width="70px" height="70px" viewBox="0 0 70 70" version="1.1" xmlns="http://www.w3.org/2000/svg" xmlns:xlink="http://www.w3.org/1999/xlink">
    <!-- Generator: Sketch 48.1 (47250) - http://www.bohemiancoding.com/sketch -->
    <title>logo/intercom</title>
    <desc>Created with Sketch.</desc>
    <defs></defs>
    <g id="Homepage-desktop" stroke="none" stroke-width="1" fill="none" fill-rule="evenodd" transform="translate(-527.000000, -3708.000000)">
        <g id="logo/integration/intercom" transform="translate(527.000000, 3708.000000)" fill="#1F8DED">
            <g id="intercom-2">
                <path d="M60.6667578,38.4857813 C60.6529139,39.7646177 59.6122903,40.7940372 58.3333789,40.7940372 C57.0544675,40.7940372 56.0138439,39.7646177 56,38.4857813 L56,17.5 C56.0138439,16.2211635 57.0544675,15.1917441 58.3333789,15.1917441 C59.6122903,15.1917441 60.6529139,16.2211635 60.6667578,17.5 L60.6667578,38.4857813 Z M59.8524609,53.0908984 C59.4917969,53.3996094 50.8481641,60.6528125 35,60.6528125 C19.1521094,60.6528125 10.50875,53.3993359 10.1480859,53.090625 C9.16984413,52.251791 9.05661593,50.7788451 9.89515625,49.8003516 C10.7318009,48.8235236 12.2012825,48.7082941 13.1799609,49.5427734 C13.3169531,49.6576172 21.0355469,55.9857812 35.0002734,55.9857812 C49.1402734,55.9857812 56.739375,49.6119531 56.8145703,49.5476953 C57.7910156,48.7090625 59.2667578,48.8217188 60.1048437,49.800625 C60.9436736,50.7789223 60.8306817,52.2519793 59.8524609,53.0908984 Z M9.33324219,17.5 C9.34708607,16.2211635 10.3877097,15.1917441 11.6666211,15.1917441 C12.9455325,15.1917441 13.9861561,16.2211635 14,17.5 L14,38.4857812 C13.9861561,39.7646177 12.9455325,40.7940372 11.6666211,40.7940372 C10.3877097,40.7940372 9.34708607,39.7646177 9.33324219,38.4857812 L9.33324219,17.5 Z M21.0002734,12.8332422 C21.019789,11.5585553 22.0586794,10.5354486 23.3335156,10.5354486 C24.6083518,10.5354486 25.6472423,11.5585553 25.6667578,12.8332422 L25.6667578,44.0053906 C25.6472423,45.2800775 24.6083518,46.3031842 23.3335156,46.3031842 C22.0586794,46.3031842 21.019789,45.2800775 21.0002734,44.0053906 L21.0002734,12.8335156 L21.0002734,12.8332422 Z M32.6667578,11.6525391 C32.6666853,11.0337025 32.912485,10.4401911 33.3500685,10.0026076 C33.787652,9.56502407 34.3811635,9.31922434 35,9.31929688 C35.6188839,9.3191518 36.2124656,9.5649195 36.6501083,10.0025109 C37.0877509,10.4401023 37.3335882,11.0336551 37.3335156,11.6525391 L37.3335156,45.4857812 C37.3196717,46.7646177 36.2790481,47.7940372 35.0001367,47.7940372 C33.7212253,47.7940372 32.6806017,46.7646177 32.6667578,45.4857812 L32.6667578,11.6525391 Z M44.3335156,12.8332422 C44.3530312,11.5585553 45.3919216,10.5354486 46.6667578,10.5354486 C47.941594,10.5354486 48.9804845,11.5585553 49,12.8332422 L49,44.0053906 C48.9804845,45.2800775 47.941594,46.3031842 46.6667578,46.3031842 C45.3919216,46.3031842 44.3530312,45.2800775 44.3335156,44.0053906 L44.3335156,12.8335156 L44.3335156,12.8332422 Z M61.25,0 L8.75,0 C3.91753906,0 0,3.91753906 0,8.75 L0,61.25 C0,66.0821875 3.91753906,70 8.75,70 L61.25,70 C66.0824609,70 70,66.0821875 70,61.25 L70,8.75 C70,3.91753906 66.0824609,0 61.25,0 Z" id="Shape" fill-rule="nonzero"></path>
            </g>
        </g>
    </g>
</svg>