<?xml version="1.0" encoding="utf-8"?>
<!-- Generator: Adobe Illustrator 22.1.0, SVG Export Plug-In . SVG Version: 6.00 Build 0)  -->
<svg version="1.1" id="Calque_1" xmlns="http://www.w3.org/2000/svg" xmlns:xlink="http://www.w3.org/1999/xlink" x="0px" y="0px"
	 viewBox="0 0 120 120" style="enable-background:new 0 0 120 120;" xml:space="preserve">
<style type="text/css">
	.st0{fill:#C2D9FF;}
	.st1{fill:#3884FF;}
</style>
<title>illustration/embed</title>
<desc>Created with Sketch.</desc>
<g id="Symbols">
	<g id="illustration_x2F_embed">
		<path id="Mask" class="st0" d="M70,72.5c0,0.8-0.7,1.5-1.5,1.5S67,73.3,67,72.5s0.7-1.5,1.5-1.5S70,71.7,70,72.5 M73,72.5
			c0-2.5-2-4.5-4.5-4.5S64,70,64,72.5s2,4.5,4.5,4.5S73,75,73,72.5 M103,51.3c-0.1-0.8-0.9-1.4-1.7-1.3l-15,2c0,0-0.1,0-0.1,0
			c-0.1,0-0.1,0-0.1,0c0,0-0.1,0-0.1,0.1c0,0-0.1,0-0.1,0.1c0,0-0.1,0.1-0.1,0.1c0,0-0.1,0-0.1,0.1c0,0-0.1,0.1-0.1,0.1
			c0,0-0.1,0.1-0.1,0.1c0,0-0.1,0.1-0.1,0.1c0,0,0,0.1-0.1,0.1c0,0,0,0.1-0.1,0.2c0,0,0,0.1,0,0.1c0,0.1,0,0.1,0,0.2
			c0,0,0,0.1,0,0.1c0,0.1,0,0.1,0,0.2c0,0,0,0.1,0,0.1l0,0v0c0,0,0,0,0,0l1.3,11.4L80.3,66c0,0-0.1,0-0.1,0c-0.1,0-0.1,0-0.2,0
			c0,0-0.1,0-0.1,0.1c0,0-0.1,0-0.1,0.1c0,0-0.1,0.1-0.1,0.1c0,0-0.1,0.1-0.1,0.1c0,0-0.1,0.1-0.1,0.1c0,0-0.1,0.1-0.1,0.1
			c0,0-0.1,0.1-0.1,0.1c0,0-0.1,0.1-0.1,0.1c0,0,0,0.1-0.1,0.1c0,0,0,0.1,0,0.1c0,0,0,0.1,0,0.2c0,0,0,0.1,0,0.1c0,0.1,0,0.1,0,0.2
			c0,0,0,0.1,0,0.1l2,18c0.1,0.8,0.7,1.3,1.5,1.3c0.1,0,0.1,0,0.2,0c0.8-0.1,1.4-0.8,1.3-1.7l-1.8-16.6l4.6-0.7l0.3,2.5
			c0.1,0.8,0.7,1.3,1.5,1.3c0.1,0,0.1,0,0.2,0c0.8-0.1,1.4-0.8,1.3-1.7l-1.8-15.5l13.5-1.8C102.5,52.9,103.1,52.1,103,51.3
			 M46.6,54.6l9-9c0.6-0.6,0.6-1.5,0-2.1c-0.6-0.6-1.5-0.6-2.1,0l-9,9c-0.6,0.6-0.6,1.5,0,2.1c0.3,0.3,0.7,0.4,1.1,0.4
			S46.3,54.9,46.6,54.6 M42.6,66.6l5.5-5.5c0.6-0.6,0.6-1.5,0-2.1c-0.6-0.6-1.5-0.6-2.1,0l-5.5,5.5c-0.6,0.6-0.6,1.5,0,2.1
			c0.3,0.3,0.7,0.4,1.1,0.4S42.3,66.9,42.6,66.6 M38.6,70.6l1-1c0.6-0.6,0.6-1.5,0-2.1c-0.6-0.6-1.5-0.6-2.1,0l-1,1
			c-0.6,0.6-0.6,1.5,0,2.1c0.3,0.3,0.7,0.4,1.1,0.4S38.3,70.9,38.6,70.6 M42.6,58.6l1-1c0.6-0.6,0.6-1.5,0-2.1
			c-0.6-0.6-1.5-0.6-2.1,0l-1,1c-0.6,0.6-0.6,1.5,0,2.1c0.3,0.3,0.7,0.4,1.1,0.4S42.3,58.9,42.6,58.6 M38.6,62.6l1-1
			c0.6-0.6,0.6-1.5,0-2.1c-0.6-0.6-1.5-0.6-2.1,0l-1,1c-0.6,0.6-0.6,1.5,0,2.1c0.3,0.3,0.7,0.4,1.1,0.4S38.3,62.9,38.6,62.6
			 M46.6,46.6l3-3c0.6-0.6,0.6-1.5,0-2.1c-0.6-0.6-1.5-0.6-2.1,0l-3,3c-0.6,0.6-0.6,1.5,0,2.1c0.3,0.3,0.7,0.4,1.1,0.4
			S46.3,46.9,46.6,46.6 M41.6,51.6l2-2c0.6-0.6,0.6-1.5,0-2.1c-0.6-0.6-1.5-0.6-2.1,0l-2,2c-0.6,0.6-0.6,1.5,0,2.1
			c0.3,0.3,0.7,0.4,1.1,0.4S41.3,51.9,41.6,51.6 M33.6,59.6l5-5c0.6-0.6,0.6-1.5,0-2.1c-0.6-0.6-1.5-0.6-2.1,0l-5,5
			c-0.6,0.6-0.6,1.5,0,2.1c0.3,0.3,0.7,0.4,1.1,0.4S33.3,59.9,33.6,59.6 M47.6,37.6l2-2c0.6-0.6,0.6-1.5,0-2.1
			c-0.6-0.6-1.5-0.6-2.1,0l-2,2c-0.6,0.6-0.6,1.5,0,2.1c0.3,0.3,0.7,0.4,1.1,0.4S47.3,37.9,47.6,37.6 M34.6,50.6l10-10
			c0.6-0.6,0.6-1.5,0-2.1c-0.6-0.6-1.5-0.6-2.1,0l-10,10c-0.6,0.6-0.6,1.5,0,2.1c0.3,0.3,0.7,0.4,1.1,0.4S34.3,50.9,34.6,50.6
			 M29.6,55.6l2-2c0.6-0.6,0.6-1.5,0-2.1c-0.6-0.6-1.5-0.6-2.1,0l-2,2c-0.6,0.6-0.6,1.5,0,2.1c0.3,0.3,0.7,0.4,1.1,0.4
			S29.3,55.9,29.6,55.6 M22.5,62c-0.4,0-0.8-0.1-1.1-0.4c-0.6-0.6-0.6-1.5,0-2.1l3-3c0.6-0.6,1.5-0.6,2.1,0c0.6,0.6,0.6,1.5,0,2.1
			l-3,3C23.3,61.9,22.9,62,22.5,62"/>
		<path id="Mask_1_" class="st1" d="M24.3,100.3l76-76c1-1,1-2.6,0-3.5c-1-1-2.6-1-3.5,0l-76,76c-1,1-1,2.6,0,3.5
			c0.5,0.5,1.1,0.7,1.8,0.7C23.1,101,23.8,100.8,24.3,100.3 M112.3,58.7l-16-16c-1-1-2.6-1-3.5,0c-1,1-1,2.6,0,3.5L107,60.5
			L73.7,93.7c-1,1-1,2.6,0,3.5c0.5,0.5,1.1,0.7,1.8,0.7c0.6,0,1.3-0.2,1.8-0.7l35-35C113.2,61.3,113.2,59.7,112.3,58.7 M47.3,23.7
			c1,1,1,2.6,0,3.5L14,60.5l14.2,14.2c1,1,1,2.6,0,3.5c-0.5,0.5-1.1,0.7-1.8,0.7c-0.6,0-1.3-0.2-1.8-0.7l-16-16c-1-1-1-2.6,0-3.5
			l35-35C44.7,22.8,46.3,22.8,47.3,23.7"/>
	</g>
</g>
</svg>
