<?xml version="1.0" encoding="utf-8"?>
<!-- Generator: Adobe Illustrator 22.1.0, SVG Export Plug-In . SVG Version: 6.00 Build 0)  -->
<svg version="1.1" id="Calque_1" xmlns="http://www.w3.org/2000/svg" xmlns:xlink="http://www.w3.org/1999/xlink" x="0px" y="0px"
	 viewBox="0 0 120 120" style="enable-background:new 0 0 120 120;" xml:space="preserve">
<style type="text/css">
	.st0{fill:#C2D9FF;}
	.st1{fill:#3884FF;}
</style>
<title>illustration/audit</title>
<desc>Created with Sketch.</desc>
<g id="Symbols">
	<g id="illustration_x2F_audit">
		<path id="Mask" class="st0" d="M98,54c0.8-0.2,1.3-1,1.2-1.8C95.3,33,78.2,19,58.5,19c-4.2,0-8.4,0.6-12.4,1.9
			c-0.8,0.2-1.2,1.1-1,1.9c0.2,0.8,1.1,1.2,1.9,1c3.7-1.2,7.6-1.8,11.5-1.8c18.2,0,34.1,13,37.7,30.8c0.1,0.7,0.8,1.2,1.5,1.2
			C97.8,54,97.9,54,98,54 M99.4,67.8c0.1-0.8-0.4-1.6-1.2-1.7c-0.8-0.1-1.6,0.4-1.7,1.2C93.2,85.7,77.2,99,58.5,99
			c-1,0-1.9,0-2.9-0.1c-0.8,0-1.5,0.6-1.6,1.4c-0.1,0.8,0.6,1.5,1.4,1.6c1,0.1,2.1,0.1,3.1,0.1C78.7,102,95.9,87.6,99.4,67.8
			 M41.8,96.9c0.4-0.7,0.1-1.6-0.7-2c-10.8-5.5-18.5-15.8-20.6-27.7c-0.1-0.8-0.9-1.4-1.7-1.2c-0.8,0.1-1.4,0.9-1.2,1.7
			c2.3,12.8,10.6,23.9,22.2,29.8c0.2,0.1,0.4,0.2,0.7,0.2C41,97.8,41.6,97.5,41.8,96.9 M20.6,53.8c1-5.6,3.1-10.8,6.4-15.4
			c0.5-0.7,0.3-1.6-0.4-2.1C26,35.8,25,36,24.5,36.7c-3.5,5-5.8,10.6-6.9,16.6c-0.1,0.8,0.4,1.6,1.2,1.7c0.1,0,0.2,0,0.3,0
			C19.8,55,20.5,54.5,20.6,53.8 M88,55c0.8-0.2,1.3-1,1.1-1.8C85.7,39,73.1,29,58.5,29c-3.9,0-7.7,0.7-11.3,2.1
			c-0.8,0.3-1.2,1.2-0.9,1.9c0.3,0.8,1.2,1.2,1.9,0.9C51.5,32.7,55,32,58.5,32c13.2,0,24.6,9,27.7,21.8c0.2,0.7,0.8,1.2,1.5,1.2
			C87.8,55,87.9,55,88,55 M89.1,67.9c0.2-0.8-0.3-1.6-1.1-1.8c-0.8-0.2-1.6,0.3-1.8,1.1C83.1,80.1,71.7,89,58.5,89
			c-0.8,0-1.5,0.7-1.5,1.5c0,0.8,0.7,1.5,1.5,1.5C73.1,92,85.7,82.1,89.1,67.9 M40.4,84.5c0.5-0.6,0.4-1.6-0.2-2.1
			c-4.9-4.1-8.4-9.9-9.6-16.2c-0.2-0.8-1-1.3-1.8-1.2c-0.8,0.2-1.3,1-1.2,1.8c1.4,6.9,5.2,13.3,10.6,17.9c0.3,0.2,0.6,0.3,1,0.3
			C39.7,85,40.1,84.9,40.4,84.5 M77.5,55.8c-0.6,0-1.2-0.4-1.4-1C73.6,47.1,66.5,42,58.5,42c-2.9,0-5.7,0.7-8.3,2
			c-0.7,0.4-1.6,0.1-2-0.7c-0.4-0.7-0.1-1.6,0.7-2c3-1.5,6.3-2.3,9.7-2.3C67.8,39,76,45,78.9,53.8c0.3,0.8-0.2,1.6-1,1.9
			C77.8,55.7,77.7,55.8,77.5,55.8"/>
		<path id="Mask_1_" class="st1" d="M108.5,55c-2.1,0-4,1.2-4.9,3H82.2c-3.2,0-6.2,1.8-7.6,4.7l-5.3,10.6l-6-24.1
			c-0.5-2.1-2.4-3.5-4.5-3.4c-2.2,0.1-3.9,1.6-4.3,3.8l-5.5,39.7l-6.6-66.3c-0.2-2.3-2-4-4.3-4.1c-2.3-0.1-4.2,1.4-4.6,3.7
			l-6.3,32.8C26.8,57,25.4,58,23.8,58H8.5C7.1,58,6,59.2,6,60.5C6,61.9,7.1,63,8.5,63h15.3c3.9,0,7.3-2.6,8.2-6.4c0,0,0-0.1,0-0.1
			L37.7,27l6.6,67.1c0.2,2.3,2.1,4,4.4,4.1c0,0,0.1,0,0.1,0c2.3,0,4.1-1.6,4.5-3.9L59,53l5.7,22.9c0.5,1.8,2,3.2,3.9,3.4
			c1.9,0.2,3.7-0.8,4.5-2.5L79.1,65c0.6-1.2,1.8-1.9,3.1-1.9h21.4c0.9,1.8,2.8,3,4.9,3c3,0,5.5-2.5,5.5-5.5
			C114,57.5,111.5,55,108.5,55"/>
	</g>
</g>
</svg>
