<?xml version="1.0" encoding="utf-8"?>
<!-- Generator: Adobe Illustrator 22.1.0, SVG Export Plug-In . SVG Version: 6.00 Build 0)  -->
<svg version="1.1" id="Calque_1" xmlns="http://www.w3.org/2000/svg" xmlns:xlink="http://www.w3.org/1999/xlink" x="0px" y="0px"
	 viewBox="0 0 120 120" style="enable-background:new 0 0 120 120;" xml:space="preserve">
<style type="text/css">
	.st0{fill:#C2D9FF;}
	.st1{fill:#3884FF;}
</style>
<title>illustration/wysiwig</title>
<desc>Created with Sketch.</desc>
<g id="Symbols">
	<g id="illustration_x2F_wysiwig">
		<path id="Mask" class="st0" d="M37,91.5c0-0.8-0.7-1.5-1.5-1.5h-3c-0.8,0-1.5,0.7-1.5,1.5s0.7,1.5,1.5,1.5h3
			C36.3,93,37,92.3,37,91.5 M49,91.5c0-0.8-0.7-1.5-1.5-1.5h-7c-0.8,0-1.5,0.7-1.5,1.5s0.7,1.5,1.5,1.5h7C48.3,93,49,92.3,49,91.5
			 M58,91.5c0-0.8-0.7-1.5-1.5-1.5h-4c-0.8,0-1.5,0.7-1.5,1.5s0.7,1.5,1.5,1.5h4C57.3,93,58,92.3,58,91.5 M78,91.5
			c0-0.8-0.7-1.5-1.5-1.5h-15c-0.8,0-1.5,0.7-1.5,1.5s0.7,1.5,1.5,1.5h15C77.3,93,78,92.3,78,91.5 M102,91.5c0-0.8-0.7-1.5-1.5-1.5
			h-19c-0.8,0-1.5,0.7-1.5,1.5s0.7,1.5,1.5,1.5h19C101.3,93,102,92.3,102,91.5 M41,101.5c0-0.8-0.7-1.5-1.5-1.5h-7
			c-0.8,0-1.5,0.7-1.5,1.5s0.7,1.5,1.5,1.5h7C40.3,103,41,102.3,41,101.5 M54,101.5c0-0.8-0.7-1.5-1.5-1.5h-8
			c-0.8,0-1.5,0.7-1.5,1.5s0.7,1.5,1.5,1.5h8C53.3,103,54,102.3,54,101.5 M86,101.5c0-0.8-0.7-1.5-1.5-1.5h-27
			c-0.8,0-1.5,0.7-1.5,1.5s0.7,1.5,1.5,1.5h27C85.3,103,86,102.3,86,101.5 M37,61.5c0-0.8-0.7-1.5-1.5-1.5h-3
			c-0.8,0-1.5,0.7-1.5,1.5s0.7,1.5,1.5,1.5h3C36.3,63,37,62.3,37,61.5 M49,61.5c0-0.8-0.7-1.5-1.5-1.5h-7c-0.8,0-1.5,0.7-1.5,1.5
			s0.7,1.5,1.5,1.5h7C48.3,63,49,62.3,49,61.5 M60,61.5c0-0.8-0.7-1.5-1.5-1.5h-6c-0.8,0-1.5,0.7-1.5,1.5s0.7,1.5,1.5,1.5h6
			C59.3,63,60,62.3,60,61.5 M78,61.5c0-0.8-0.7-1.5-1.5-1.5h-13c-0.8,0-1.5,0.7-1.5,1.5s0.7,1.5,1.5,1.5h13C77.3,63,78,62.3,78,61.5
			 M102,61.5c0-0.8-0.7-1.5-1.5-1.5h-19c-0.8,0-1.5,0.7-1.5,1.5s0.7,1.5,1.5,1.5h19C101.3,63,102,62.3,102,61.5 M46,51.5
			c0-0.8-0.7-1.5-1.5-1.5h-12c-0.8,0-1.5,0.7-1.5,1.5s0.7,1.5,1.5,1.5h12C45.3,53,46,52.3,46,51.5 M53,51.5c0-0.8-0.7-1.5-1.5-1.5
			h-2c-0.8,0-1.5,0.7-1.5,1.5s0.7,1.5,1.5,1.5h2C52.3,53,53,52.3,53,51.5 M70,51.5c0-0.8-0.7-1.5-1.5-1.5h-12
			c-0.8,0-1.5,0.7-1.5,1.5s0.7,1.5,1.5,1.5h12C69.3,53,70,52.3,70,51.5 M91,51.5c0-0.8-0.7-1.5-1.5-1.5h-16c-0.8,0-1.5,0.7-1.5,1.5
			s0.7,1.5,1.5,1.5h16C90.3,53,91,52.3,91,51.5 M98,51.5c0-0.8-0.7-1.5-1.5-1.5h-2c-0.8,0-1.5,0.7-1.5,1.5s0.7,1.5,1.5,1.5h2
			C97.3,53,98,52.3,98,51.5 M38,41.5c0-0.8-0.7-1.5-1.5-1.5h-4c-0.8,0-1.5,0.7-1.5,1.5s0.7,1.5,1.5,1.5h4C37.3,43,38,42.3,38,41.5
			 M52,41.5c0-0.8-0.7-1.5-1.5-1.5h-9c-0.8,0-1.5,0.7-1.5,1.5s0.7,1.5,1.5,1.5h9C51.3,43,52,42.3,52,41.5 M78,41.5
			c0-0.8-0.7-1.5-1.5-1.5h-21c-0.8,0-1.5,0.7-1.5,1.5s0.7,1.5,1.5,1.5h21C77.3,43,78,42.3,78,41.5 M95,41.5c0-0.8-0.7-1.5-1.5-1.5
			h-12c-0.8,0-1.5,0.7-1.5,1.5s0.7,1.5,1.5,1.5h12C94.3,43,95,42.3,95,41.5 M41,71.5c0-0.8-0.7-1.5-1.5-1.5h-7
			c-0.8,0-1.5,0.7-1.5,1.5s0.7,1.5,1.5,1.5h7C40.3,73,41,72.3,41,71.5 M57,71.5c0-0.8-0.7-1.5-1.5-1.5h-11c-0.8,0-1.5,0.7-1.5,1.5
			s0.7,1.5,1.5,1.5h11C56.3,73,57,72.3,57,71.5 M68,71.5c0-0.8-0.7-1.5-1.5-1.5h-5c-0.8,0-1.5,0.7-1.5,1.5s0.7,1.5,1.5,1.5h5
			C67.3,73,68,72.3,68,71.5 M84.5,73h-13c-0.8,0-1.5-0.7-1.5-1.5s0.7-1.5,1.5-1.5h13c0.8,0,1.5,0.7,1.5,1.5S85.3,73,84.5,73"/>
		<g id="Mask_1_">
			<path id="path-1_1_" class="st1" d="M41.9,25.1l-1.2-3.3l-1.2,3.3H41.9z M47.7,33.8C47.4,34,47.1,34,46.9,34c-1,0-2-0.6-2.4-1.6
				l-0.8-2.2h-6l-0.8,2.2c-0.4,1-1.3,1.6-2.4,1.6c-0.3,0-0.6,0-0.9-0.2c-1.3-0.5-2-1.9-1.5-3.2l6.2-17c0,0,0-0.1,0-0.1
				c0-0.1,0.1-0.2,0.1-0.2c0-0.1,0.1-0.1,0.1-0.2c0-0.1,0.1-0.1,0.1-0.2c0.1-0.1,0.1-0.1,0.2-0.2c0.1-0.1,0.1-0.1,0.2-0.2
				c0.1-0.1,0.1-0.1,0.2-0.2c0.1,0,0.1-0.1,0.2-0.1c0.1,0,0.2-0.1,0.2-0.1c0,0,0.1,0,0.1,0c0,0,0.1,0,0.1,0c0.1,0,0.2-0.1,0.3-0.1
				c0.1,0,0.1,0,0.2,0c0.1,0,0.2,0,0.3,0c0.1,0,0.2,0,0.2,0c0.1,0,0.2,0,0.2,0c0.1,0,0.2,0,0.2,0.1c0,0,0.1,0,0.1,0c0,0,0.1,0,0.1,0
				c0.1,0,0.2,0.1,0.2,0.1c0.1,0,0.1,0.1,0.2,0.1c0.1,0,0.1,0.1,0.2,0.1c0.1,0.1,0.1,0.1,0.2,0.2c0.1,0.1,0.1,0.1,0.2,0.2
				c0.1,0.1,0.1,0.1,0.1,0.2c0,0.1,0.1,0.1,0.1,0.2c0,0.1,0.1,0.2,0.1,0.2c0,0,0,0.1,0,0.1l6.2,17C49.7,31.9,49,33.4,47.7,33.8z
				 M68,30.5c0-1.4-1.1-2.5-2.5-2.5h-7c-1.4,0-2.5,1.1-2.5,2.5s1.1,2.5,2.5,2.5h7C66.9,33,68,31.9,68,30.5z M92,30.5
				c0-1.4-1.1-2.5-2.5-2.5h-16c-1.4,0-2.5,1.1-2.5,2.5s1.1,2.5,2.5,2.5h16C90.9,33,92,31.9,92,30.5z M24,101.5v-87
				c0-1.4-1.1-2.5-2.5-2.5c-1.4,0-2.5,1.1-2.5,2.5v87c0,1.4,1.1,2.5,2.5,2.5C22.9,104,24,102.9,24,101.5z M90.5,108
				c-0.8,0-1.5-0.7-1.5-1.5v-9c0-0.8,0.7-1.5,1.5-1.5c0.8,0,1.5,0.7,1.5,1.5v9C92,107.3,91.3,108,90.5,108z"/>
		</g>
	</g>
</g>
</svg>
