<?xml version="1.0" encoding="utf-8"?>
<!-- Generator: Adobe Illustrator 22.1.0, SVG Export Plug-In . SVG Version: 6.00 Build 0)  -->
<svg version="1.1" id="Calque_1" xmlns="http://www.w3.org/2000/svg" xmlns:xlink="http://www.w3.org/1999/xlink" x="0px" y="0px"
	 viewBox="0 0 120 120" style="enable-background:new 0 0 120 120;" xml:space="preserve">
<style type="text/css">
	.st0{fill:#C2D9FF;}
	.st1{fill:#3884FF;}
</style>
<title>illustration/github</title>
<desc>Created with Sketch.</desc>
<g id="Symbols">
	<g id="illustration_x2F_github">
		<path id="Mask" class="st0" d="M63.4,16.6l-8.7-7.3c-0.6-0.5-1.6-0.4-2.1,0.2c-0.5,0.6-0.4,1.6,0.2,2.1l5.6,4.7
			C34.8,17.4,16,36.9,16,60.8c0,16.6,9.1,31.7,23.8,39.4c0.2,0.1,0.5,0.2,0.7,0.2c0.5,0,1.1-0.3,1.3-0.8c0.4-0.7,0.1-1.6-0.6-2
			C27.5,90.3,19,76.2,19,60.8C19,38.3,36.9,20,59.2,19.3l-5.2,6.2c-0.5,0.6-0.4,1.6,0.2,2.1c0.3,0.2,0.6,0.4,1,0.4
			c0.4,0,0.9-0.2,1.2-0.5l7.3-8.7C64.2,18.1,64.1,17.2,63.4,16.6 M105,60.8c0-16.6-9.1-31.7-23.8-39.4c-0.7-0.4-1.6-0.1-2,0.6
			c-0.4,0.7-0.1,1.6,0.6,2C93.5,31.2,102,45.3,102,60.8c0,22.5-18,40.8-40.3,41.5l4.9-5.8c0.5-0.6,0.4-1.6-0.2-2.1
			c-0.6-0.5-1.6-0.4-2.1,0.2l-7.3,8.7c-0.5,0.6-0.4,1.6,0.2,2.1l8.7,7.3c0.3,0.2,0.6,0.4,1,0.4c0.4,0,0.9-0.2,1.2-0.5
			c0.5-0.6,0.5-1.6-0.2-2.1l-6-5C85.8,104.5,105,84.9,105,60.8 M97.4,93.8c4.8-5.4,8.5-11.9,10.5-18.8c0.2-0.8-0.2-1.6-1-1.9
			c-0.8-0.2-1.6,0.2-1.9,1c-1.9,6.5-5.4,12.6-9.9,17.7c-0.6,0.6-0.5,1.6,0.1,2.1c0.3,0.3,0.6,0.4,1,0.4
			C96.7,94.3,97.1,94.1,97.4,93.8 M15.7,78.2c0.8-0.3,1.2-1.1,0.9-1.9c-0.2-0.6-0.4-1.3-0.6-1.9c-0.2-0.8-1.1-1.2-1.9-1
			c-0.8,0.2-1.2,1.1-1,1.9c0.2,0.7,0.4,1.4,0.7,2.1c0.2,0.6,0.8,1,1.4,1C15.4,78.3,15.6,78.2,15.7,78.2 M13,69.3
			c-0.7,0-1.4-0.5-1.5-1.3c-0.3-2.4-0.5-4.8-0.5-7.2c0-18.9,10.5-35.9,27.5-44.3c0.7-0.4,1.6-0.1,2,0.7s0.1,1.6-0.7,2
			C23.9,27,14,43,14,60.8c0,2.3,0.2,4.6,0.5,6.8c0.1,0.8-0.4,1.6-1.3,1.7C13.2,69.3,13.1,69.3,13,69.3"/>
		<g id="Mask_1_">
			<path id="path-1_1_" class="st1" d="M69.5,90.3c-1.4,0-2.5-1.1-2.5-2.5v-9.4c0-0.1,0-0.1,0-0.2c0.1-1.6-0.4-3.2-1.6-4.4
				c-0.7-0.7-0.9-1.7-0.6-2.6c0.3-0.9,1.1-1.5,2.1-1.6c7-0.8,13.4-3.1,13.4-14.5c0-2.8-1-5.4-3-7.4c-0.7-0.7-0.9-1.7-0.5-2.6
				c0.7-1.8,0.8-3.8,0.4-5.7c-1.2,0.3-3.3,1-6.3,3.1c-0.6,0.4-1.3,0.5-2,0.3c-5.1-1.4-10.6-1.4-15.7,0c-0.7,0.2-1.4,0.1-2-0.3
				c-3.1-2.1-5.1-2.8-6.3-3.1c-0.4,1.9-0.3,3.8,0.4,5.7c0.3,0.9,0.1,1.9-0.5,2.6c-1.9,2-3,4.7-3,7.4c0,11.3,6.5,13.7,13.4,14.5
				c0.9,0.1,1.7,0.8,2,1.6c0.3,0.9,0.1,1.9-0.6,2.6c-1.1,1.2-1.7,2.7-1.6,4.3c0,0.1,0,0.1,0,0.2v2.1c0,0,0,0.1,0,0.1v7.2
				c0,1.4-1.1,2.5-2.5,2.5c-1.4,0-2.5-1.1-2.5-2.5v-4.2c-7.3,1.1-10.4-2.9-12.5-5.6c-0.9-1.2-1.7-2.2-2.6-2.4
				c-1.3-0.3-2.2-1.7-1.8-3c0.3-1.3,1.7-2.2,3-1.8c2.5,0.6,4,2.5,5.3,4.2c2,2.5,3.6,4.6,8.6,3.6v-0.1c-0.1-1.6,0.2-3.1,0.7-4.5
				c-6.8-1.6-14-5.8-14-18.8c0-3.6,1.2-7,3.3-9.8c-0.8-3.2-0.6-6.5,0.7-9.6c0.3-0.7,0.9-1.2,1.6-1.4c0.9-0.3,4.2-0.8,10.6,3.3
				c5.3-1.2,10.8-1.2,16.1,0c6.4-4.1,9.8-3.6,10.6-3.3c0.7,0.2,1.3,0.7,1.6,1.4c1.3,3,1.6,6.4,0.7,9.6c2.2,2.8,3.3,6.1,3.3,9.7
				c0,13.8-8.3,17.6-14,18.9c0.5,1.4,0.8,3,0.7,4.5v9.3C72,89.2,70.9,90.3,69.5,90.3"/>
		</g>
	</g>
</g>
</svg>
