<?xml version="1.0" encoding="utf-8"?>
<!-- Generator: Adobe Illustrator 22.1.0, SVG Export Plug-In . SVG Version: 6.00 Build 0)  -->
<svg version="1.1" id="Calque_1" xmlns="http://www.w3.org/2000/svg" xmlns:xlink="http://www.w3.org/1999/xlink" x="0px" y="0px"
	 viewBox="0 0 120 120" style="enable-background:new 0 0 120 120;" xml:space="preserve">
<style type="text/css">
	.st0{fill:#C2D9FF;}
	.st1{fill:#3884FF;}
</style>
<title>illustration/cloud</title>
<desc>Created with Sketch.</desc>
<path d="M325,1009.5c-0.2,0-0.4,0-0.6-0.1c-0.6-0.2-0.9-0.8-0.9-1.4v-13.5H318c-2.5,0-4.5-2-4.5-4.5v-19c0-0.8,0.7-1.5,1.5-1.5
	s1.5,0.7,1.5,1.5v19c0,0.8,0.7,1.5,1.5,1.5h7c0.8,0,1.5,0.7,1.5,1.5v11.4l12.4-12.4c0.3-0.3,0.7-0.4,1.1-0.4h29
	c0.8,0,1.5-0.7,1.5-1.5v-38c0-0.8-0.7-1.5-1.5-1.5h-35c-0.8,0-1.5-0.7-1.5-1.5s0.7-1.5,1.5-1.5h35c2.5,0,4.5,2,4.5,4.5v38
	c0,2.5-2,4.5-4.5,4.5h-28.4l-14.6,14.6C325.8,1009.3,325.4,1009.5,325,1009.5z M363.5,971c0-0.8-0.7-1.5-1.5-1.5h-21
	c-0.8,0-1.5,0.7-1.5,1.5s0.7,1.5,1.5,1.5h21C362.8,972.5,363.5,971.8,363.5,971z M363.5,961c0-0.8-0.7-1.5-1.5-1.5h-21
	c-0.8,0-1.5,0.7-1.5,1.5s0.7,1.5,1.5,1.5h21C362.8,962.5,363.5,961.8,363.5,961z M363.5,981c0-0.8-0.7-1.5-1.5-1.5h-37
	c-0.8,0-1.5,0.7-1.5,1.5s0.7,1.5,1.5,1.5h37C362.8,982.5,363.5,981.8,363.5,981z M321.5,936c0-0.8-0.7-1.5-1.5-1.5h-36
	c-0.8,0-1.5,0.7-1.5,1.5s0.7,1.5,1.5,1.5h36C320.8,937.5,321.5,936.8,321.5,936z M321.5,926c0-0.8-0.7-1.5-1.5-1.5h-36
	c-0.8,0-1.5,0.7-1.5,1.5s0.7,1.5,1.5,1.5h36C320.8,927.5,321.5,926.8,321.5,926z M295.5,946c0-0.8-0.7-1.5-1.5-1.5h-10
	c-0.8,0-1.5,0.7-1.5,1.5s0.7,1.5,1.5,1.5h10C294.8,947.5,295.5,946.8,295.5,946z M295.5,956c0-0.8-0.7-1.5-1.5-1.5h-10
	c-0.8,0-1.5,0.7-1.5,1.5s0.7,1.5,1.5,1.5h10C294.8,957.5,295.5,956.8,295.5,956z"/>
<path d="M328,910.5h-52c-3,0-5.5,2.5-5.5,5.5v51c0,3,2.5,5.5,5.5,5.5h5.5V985c0,1,0.6,1.9,1.5,2.3c0.3,0.1,0.6,0.2,1,0.2
	c0.7,0,1.3-0.3,1.8-0.7l14.3-14.3h28c3,0,5.5-2.5,5.5-5.5v-51C333.5,913,331,910.5,328,910.5z M328.5,967c0,0.3-0.2,0.5-0.5,0.5h-29
	c-0.7,0-1.3,0.3-1.8,0.7L286.5,979v-9c0-1.4-1.1-2.5-2.5-2.5h-8c-0.3,0-0.5-0.2-0.5-0.5v-51c0-0.3,0.2-0.5,0.5-0.5h52
	c0.3,0,0.5,0.2,0.5,0.5V967z M320.8,944.2c1,1,1,2.6,0,3.5l-10,10c-0.5,0.5-1.1,0.7-1.8,0.7s-1.3-0.2-1.8-0.7l-5-5c-1-1-1-2.6,0-3.5
	c1-1,2.6-1,3.5,0l3.2,3.2l8.2-8.2C318.2,943.3,319.8,943.3,320.8,944.2z"/>
<path class="st0" d="M64.5,109c-0.2,0-0.4,0-0.6-0.1c-0.6-0.2-0.9-0.8-0.9-1.4V94h-5.5C55,94,53,92,53,89.5v-19
	c0-0.8,0.7-1.5,1.5-1.5s1.5,0.7,1.5,1.5v19c0,0.8,0.7,1.5,1.5,1.5h7c0.8,0,1.5,0.7,1.5,1.5v11.4l12.4-12.4c0.3-0.3,0.7-0.4,1.1-0.4
	h29c0.8,0,1.5-0.7,1.5-1.5v-38c0-0.8-0.7-1.5-1.5-1.5h-35c-0.8,0-1.5-0.7-1.5-1.5s0.7-1.5,1.5-1.5h35c2.5,0,4.5,2,4.5,4.5v38
	c0,2.5-2,4.5-4.5,4.5H80.1l-14.6,14.6C65.3,108.8,64.9,109,64.5,109z M103,70.5c0-0.8-0.7-1.5-1.5-1.5h-21c-0.8,0-1.5,0.7-1.5,1.5
	s0.7,1.5,1.5,1.5h21C102.3,72,103,71.3,103,70.5z M103,60.5c0-0.8-0.7-1.5-1.5-1.5h-21c-0.8,0-1.5,0.7-1.5,1.5s0.7,1.5,1.5,1.5h21
	C102.3,62,103,61.3,103,60.5z M103,80.5c0-0.8-0.7-1.5-1.5-1.5h-37c-0.8,0-1.5,0.7-1.5,1.5s0.7,1.5,1.5,1.5h37
	C102.3,82,103,81.3,103,80.5z M61,35.5c0-0.8-0.7-1.5-1.5-1.5h-36c-0.8,0-1.5,0.7-1.5,1.5s0.7,1.5,1.5,1.5h36
	C60.3,37,61,36.3,61,35.5z M61,25.5c0-0.8-0.7-1.5-1.5-1.5h-36c-0.8,0-1.5,0.7-1.5,1.5s0.7,1.5,1.5,1.5h36C60.3,27,61,26.3,61,25.5z
	 M35,45.5c0-0.8-0.7-1.5-1.5-1.5h-10c-0.8,0-1.5,0.7-1.5,1.5s0.7,1.5,1.5,1.5h10C34.3,47,35,46.3,35,45.5z M35,55.5
	c0-0.8-0.7-1.5-1.5-1.5h-10c-0.8,0-1.5,0.7-1.5,1.5s0.7,1.5,1.5,1.5h10C34.3,57,35,56.3,35,55.5z"/>
<path class="st1" d="M67.5,10h-52c-3,0-5.5,2.5-5.5,5.5v51c0,3,2.5,5.5,5.5,5.5H21v12.5c0,1,0.6,1.9,1.5,2.3c0.3,0.1,0.6,0.2,1,0.2
	c0.7,0,1.3-0.3,1.8-0.7L39.5,72h28c3,0,5.5-2.5,5.5-5.5v-51C73,12.5,70.5,10,67.5,10z M68,66.5c0,0.3-0.2,0.5-0.5,0.5h-29
	c-0.7,0-1.3,0.3-1.8,0.7L26,78.5v-9c0-1.4-1.1-2.5-2.5-2.5h-8c-0.3,0-0.5-0.2-0.5-0.5v-51c0-0.3,0.2-0.5,0.5-0.5h52
	c0.3,0,0.5,0.2,0.5,0.5V66.5z M60.3,43.7c1,1,1,2.6,0,3.5l-10,10c-0.5,0.5-1.1,0.7-1.8,0.7s-1.3-0.2-1.8-0.7l-5-5c-1-1-1-2.6,0-3.5
	c1-1,2.6-1,3.5,0l3.2,3.2l8.2-8.2C57.7,42.8,59.3,42.8,60.3,43.7z"/>
</svg>
